<mxfile host="app.diagrams.net" agent="Mozilla/5.0 (Windows NT 10.0; Win64; x64) AppleWebKit/537.36 (KHTML, like Gecko) Chrome/127.0.0.0 Safari/537.36" version="24.7.6">
  <diagram name="Page-1" id="eckqCCyWPdmaI4GEVOPO">
    <mxGraphModel dx="1434" dy="688" grid="1" gridSize="10" guides="1" tooltips="1" connect="1" arrows="1" fold="1" page="1" pageScale="1" pageWidth="850" pageHeight="1100" math="0" shadow="0">
      <root>
        <mxCell id="0" />
        <mxCell id="1" parent="0" />
        <mxCell id="Oy8PkqGYpKi4nK7S3hei-1" value="Payment: Paylater" style="swimlane;fillColor=#fad7ac;strokeColor=#b46504;" parent="1" vertex="1">
          <mxGeometry x="530" y="170" width="140" height="70" as="geometry" />
        </mxCell>
        <mxCell id="cw5P8ooFDJOW6OJ8KjBc-1" value="" style="shape=image;verticalLabelPosition=bottom;labelBackgroundColor=default;verticalAlign=top;aspect=fixed;imageAspect=0;image=data:image/png,iVBORw0KGgoAAAANSUhEUgAAAWMAAACiCAYAAACUAaxEAAAAAXNSR0IArs4c6QAAAARnQU1BAACxjwv8YQUAAAAJcEhZcwAAFiUAABYlAUlSJPAAAIJhSURBVHhe7b0HgB5Hef//vPWaTtKpWLIsudtyA1xx73TcSMBU22A6oQQTEnogEEICAUJCyO8fMM2BhGbTSQzYFBvjDi64N1myrN6uvu3//Tyz897e6U56706yZGu/783t7Oz0eeY7z87OzuYagmXIkCFDhh2KfHLMkCFDhgw7EBkZZ8iQIcNOgIyMM2TIkGEnQEbGGTJkyLATICPjDBkyZNgJkJFxhgwZMuwEyMg4Q4YMGXYCZGScIUOGDDsBMjLOkCFDhp0A2Rt4GTJshnpyzCVmbNBxct579C9YhBiGOGTq6DsycmpgUj78JB3MQVzJSepas5vGa82LDV3Gg3sK17mEt8Qrp9F3ROrymBfrSRw5jz8VYbS6RSbJVz1XSPwmddeg3O7RswaG4wmhI5LLuzwyMs6QYTO0SMbqOYEba34O6Y6kLsUjJnI3OUT3vPsPZw2/ORWdNpI0c8QhiA1zkViBvNXllo9knIrP4d04niX2xA9dPBUsgHw13ZJEkkPKRX48Brnkm+NNuizuU/E3YgKCDw6xCkG+oVPiSK4JIVYQXJqhY8S7IDIyzpBhM6S7xFjMEK4HeoF14nlhBAfFq9Fn0JFxGXatuUveQwZXfAYyjAbqHkrsMXRVpiLDtYoucMTdw+hfzDUEmteJ+NCPBbkVlZGot2KKicGNY0kGf5wTH3C/nGAR0u6c5BOmrsul6Tf6z4WyUapIxuEsHIf/CzHMLoiMjDNkaAHD3YRjsAfNMrpzAtVAYdikC6LtipUaaKG469Y94azg7hojPnNOrBAWpIt9MDEb5f/R1XV7eMUqu+/x1fb4wJBt6K/aYL3NBhpttqlasr56wfplqrmiTxdUq4GWIeCiNNai0iqJEEuKuZirWVlM214Ysu7iRmsr5KysfO41p8f2mdtjC3s6be857TZD2S0rR23KW8kN55A0QwflTDFmYFq5U94wbNRE66RIcYv6l8ePzhpKP1YByOcLPngMI8SbUrR3GWRknCFDCwjdJDFNpoBkQ/fBxV2bvUns42HQNYMW6HwkYGdK1TVeOaLZ9urk4dX9dt+6AXtgQ9XuXztoD6zaZOv6azZIPPm8VQqyF7jhL8qIKhtQpOIXAZMn8sIAAFEyAIQcKSGpxI1GzQqwswi5Ib26qNTbqkq0Lq1cJJ6raRipiah1rVQftJmdBVs0f67tOcNsflfO9p7dbfv2dNj8DhNB151q0efj8FNKCscUeV1xkBuu5n1OQ44cGYA0KKSRY1pG2XKjMoRcS4PeBdk4I+MMGcZA6BVpUkiILjnnek4k41yDuuvnyW24/EC0fq0mUpL2WamLoESog6KqPlHZanlY1m92z4qa/fbWu+3uVWtsSOQ6aO1WyXVKy21XHNIaFabWEIHma5YvMnmAJpm3qsizjqaNZql0mAjIiejkXflgEoMsoXVLl5WHOjkSGeMnJzW1ILf2etkadVFnndx6tuWu/FK4alUhpUFLV0ejzin/heqALZjZZcccvMiO2GemLewym9dmJr62ouIpK3HC5JjvFvlDtD5BwUCiuito0IC4wfAcOTXGYEF9KZ/Mi8s5z5zKLoaMjDNkGAOxW0C+TCY4WyTn+q/TSCDOJ057gWDwJ7IU8XDDzuM4NN9N8rRMnHfLkk121a332IrBvK3sEzGLECvSR/vRNQvyLRJiHtmJFP6U1kosPNjjCkTracudo2uWPvdB2hCyctuAEp3S/HqOTHoZFN6HCaYKyHFJ0RIXuQ7lo1CU2LVaznNDVq0MWqlQsrwyVFYcpVq/TdOwMbvUsPnTSnbAgrl23CELbN+ZZvozcbRPaaCIh7ohTqXp+Q6ETOpRi/c6lt8GZeGaiD3PqLKLISPjDBnGQLNbuNYrA6u4E8SGFYqBQIIz5ALZMWVQEd30ym2TzLKNZrc9stbuXLrabn5kpa2st1lfsdMGc2WriVBriiCfKzkRkZb/iEfI68d1roWlY+jKImPyAHGhmZM1+fVc8S/R3t0PJskg1OquCsCRmYMh15RDHPgBkHlDhO8P5JQPfHMHUBA51mtMdSg+aclMlBQ4iqCL8t9eX2v7zOqywxfNtSP3mmsHzivZbKXRqTgxZREsA82Q4pMu73nIkxfllZzWZUcz5grueepjF0NGxhkyjIHQLSCL4fOgiQaC05lcdYsvgmH2NK5u6JNZJ15+QCT88+vvst/cu8Y2FXukRxatWuShm8Lmw6qLXIH5XkhOMSTpAHgQQxI+B1sQDft1EZVu40PK+o8/heeSXyZ/frXi+cbmZMsl2FdXg5aMV8hPpE8c/uM6PskZ19BaVf56SU5EJrs09zrhROJ1tFei0rEoos5zVzDYZz1SifO9q2xuaciec9SBdtqh821Rm9kseU10/MQoPHVMvMSTEDEmI+MMGXYhRKEP1LQ5fGrCqcGZIiHj4OJdRlpjsVh3kt0kXW+DfK0cNPvFLQ/bDQ+vsXtFxhvy3TYgLZhVDq4xV+tWEKEx/0CsTquQseJDu6xxiSvJCJBnTlhH5lGDBsnUBHoleZMRMUYKCyFDqWq+9gEEPyHX/A+ngXz1k524fMqA66SrfDIX7Y/oXBvnujRl5ZH4nZfxRzwyUCZzzKydHpnXqrXVe21WfqMd2pO30w/b207cb5bNlZ8OeXTNWgTOUOEDnEOpEZcGjDhNQb5A9PFURkbGGXYduKhDUKzTpXszEQDpcVGQE+TkD8P8VD/YB1/yw1RsRSRcF3m4P5HqmkabXf9Y1a68a6ldv2SNrW6UrS/XJu2xU8RSUjq61UfLRINFSyUeovTEmM8N59UC88EQJFomR/ckBA0WTdbz6ppxuEZ8ni8/G0Y9j54uX7pAGI6enkBY/4kIi42KyiIa9Uv8o1xOj0oPLVgu9aJIU+TpDwUZMBo26Bpy3oryUK41rKR6GPKsKF60fmn6jDkFhSnUh+Rv0Mqqg93bKvbsA+fZGfvOs8N6zNoUP/7QmAsK41M9rq1LldY1lHkmbMg+wwM5pDwBIb8R6Tpw1+gw7GWnR0bGGXZBQGiBljbvxWiJYl25BxITZKmKvAZFNDyUG5BZq2t3rTf77/+7we5YWbWNxR6rlKbJX8HyYhhWD7gWKXtMC63Po4uapafPf7TEqhOcGwjRtUXc0RRrrkVClFwnFjcxgzr6Lzkv1MpJ3OE8PNQL9hAvV8MxEK/H5mc+3aAjwL3q7AdxM0eMO/kT4SofIGjOTDnInctJ/nhTkBUVLIHL1Stuz+k+otTot5mi2GMXzbKXnbyv7ddhNlshGLZE+4o95i0NSheGT897A/p2axMhxymnzRx2fmRknGGXQVPQZYF43CLx5wcFuaYpEvG1sfqDXGp0D5ES2uN6UcXj8vf7B/vsp7+/yx7YVLQN0n57S90iaCZLS9aohBcrmJkYErHl/FYfrZikSBNAfETLeUKLZIVLI+BXUgY/kSwVTtkNcQYTw4dXNCLk6mQrm454D2fEF+aucYFa8RamIwIYTKp5DQK6wN0D9VKoS3OXof7q0nbred0psFROGnSgc6CAocBJGZlfTkhfpFySRt5e67XZuX47qKdgLzv1cHv6rJzNkc8OxVBTxTNL4bTucegCgxYPEWkURR2mMbgQEXOdApfHcN5ZkZFxhl0GCDrkA7F4BweyQLROxvzkzvwn1FYTgbAyol/uq+Th2vvX2c/+uMT+tKpqG/LTbCDXbtVCySosMxM5QJRhxUOY6oDs/MFYkpYfmgkHogpcgW5Z1P9AZ3GJHGMCmqzrnjpCP5Bl6LLkFv/uiUjcDQRNt3nm/3nQ5r5xDP9kKGVIx/1CeBhZSQ8T/Pglv4YGHOpP7hCxT6GIbHnQ1wThCEBo5dKzoKOItFwqWq3Wr7JUrFyvWae05Zm19XbCfnPsOQftYUfu3mbT5LtNpkRdiryZq8jlyj5tQVTELnWb/8HuGLaNtD95kJFxhl0G0Aok6aSSkCTan08nJH54bbeeG3QiGpS2u05u9/SaffEnN9rtq8w2Fmf5dASvKteLIhgRBXERPrxYoSO35Apf4DFVjVXDil/nbrDLhP9QFZ0Qd269IUZIJmijgVSHfXPqeVc8/HhhI1AnhlSCvzyauZ8JhNGBcNhYEeLQgZeWI3G7s/6Fq8kAkM9ZUQSKF+qIQSuWIYDIw/V8XQOP20OZoBXmj2u65i4Kx3w31+tFXES0taq7sRalszFgPdX1dvoBC+38UxbaAlVHj+LpxJ/8UD884KSUXtu+VI6chhwPg/PRbk8OZGScYZcBVFzTL1BxwTU1fmhZrO3FjSv96uQbdXxgwOxrV91uv19as+W5GdZfaBchFeBK6NKqZR5QKYRu0fP+ogVEpYtOcKFbMdcLtbmmyfVkTjUNqMPnY2VpaDQgj+TL50/FOAVFydtrRO0vSkBKkLYIKeREUDeOxFrQUNHc3U2xQH35fEmDBPkTDRKU/CgeQvgKBsiSDBAl/vzNPrlBmBAr8RXyNsTcNsv5dE7ewgNHpeHJKW/ERZ6UTx+k5I80ATZ+FU5l2om3UrOitOVKVZqy8lMaGrL9OtbaaQfMtT8/dk/bXX6mNYasWGhTrVA2maoapkBdBm08xB6RRP4kREbGGXYZBDKGbSAeaXK+xIxVAnLj4ZxIhZeAl4lAfnLrGrvi5kftvkqHberotgokA/Gon7POlp81mCcN3SfMqdKhAhmE+VZWIUBQgTDD+uKR5JTwp4iFfOlIOpCg7L5XhM5LaNpVXsQgfl4rlp96xdqlPc7obHMS8w1/RGolEWaHCL2ocwgT4q3IDIq4B0R8fYNVHavWN1Szfqma/kBQ4akJyK7GeYHXspW7gjRb3tLD6CKrKtwC2cpA3swfE8Egij35iyX0cssthVBqhZaFeOu5sk/OWLXPyoWKtGgNQ/k2a68M2qzGBjuwe9BeesJBdtzCruZ8Mm8gJqvedMY0EBbPmJvhZXJPPmRknGGXAh2eW+bQiXm1WDfr+bJtkMsq9YQHVpl99sc327LBgrTjslU7Zlhfg7flCMEMciCZoLGWpSWyCiJQGSQEIQTdUESmMNAF2qJ3Mo9DRueRsPwFB+LMSxsWaRI3K4mLtUGbJoLqaGy06cU+m9WVt0Uzum2fOXNs4e7zbF5Pu81oC68dsysaOqL4V2ED+bJkjDSdYEcZwAsqA/r32OpBW7JynT24fI09vHKjreqXe77L1kp9rRTKNqRImZJpiDhz+XZlnTsK6k1595GJ2FSaogYaysn0AXccsrOmmhLjifJSUp9RR7VXQRkIIc+wdwbXh5TvihWrRS9TZ23AZtc2SUvusZefuJftq8J2KDZ4X56tqAHM9XnSpU69fqnmmKrX9pMGGRln2HUgSYfweIuMzXLqOmEPiQ3q0Mt1+eu/Xmq/umepLat3W7XUKapINEce0KW6daSYqjo9S8EC0ShuiIULugyp+sM2P1EcSQwY9nhwulZYHlCxrK2ztt7aGhXrFiEdunCuPX3vebbv3Ok2u6tg09vRfAPxyqqwgXQhJeyJouhxBwIKafn8ePILruE64BjfGuTIkr1+OfarAGv6zDbIYfmaDXbLfQ/ZPcvX2sqBvPWXeqw/16VBpuSvaVuh6GGZtiB2ZlrIjR8hRP5kH0455MPvFHTBX3JReiWVhLljdpWrKicscvO7A5F+h86nVzfY3u1D9qIj97fnHDLT5iiqLkUF+cfSMcCRBkSM4Qz4tScJMjLO8NQAHVxEAEc4ObkGDCGFW1nvnvoTDzp5QAQQ0VqZW1eafe3qO+z2dTqXVlgrd0i7pGOHzhxe/ZVGmExBeIeRlVehw1KwoJnFh1v+gA13Z2a5eES6JjfWDLeLdDur/dZZ2WS7dRRsv/kz7ZD57XbIvvNt9+lm3fKug68oSO7+HfTUmKfgRtoRIW0MWnpyAx/+4xj+CfIHWyrvcfCIUzcY6JuzZPLGX+/eKLNEdXP7I6vtvpW9dv/j623Zhor1F7usN9dmg3nlMh+GqAZzEDonHgYrQM6Y4vCHkrrC/DhXfEqEpX+qX5/9VRt62gXVNXM+DWnKKnSxUrMu+ZldX2fPO3iOvfiZi2xPjUqd8hzuAJIpEwUJ5R7d9qNAVbgjlojNfD3hyMg4w1MDrm2hgUYyplvX1eF9VtI1WPcj0uiTp375XS33H/9htf3PtXfZ0lyP9ZVnWo6HdPrFh2Gxw9LRQ4cNpBcui7jQsJ113dXairq17x+0Yqls1VrVSvLI/G5e2m/Jpx5qNjs/ZItnd9rzj15sh84z38i9W6HRdknBH1LJUI5AEcQfUgiEvDlxJPphUn736efjIxDveP4iLTDVwtZExOraswwD2L0i5/+78QG749E1TsjLxNqlcqcGsYJVRLA1tGYxZVVBC5B1lboXGcvw5h4PJQGDIm/1gVyjIHfYVS2QY9tQpnFEszVpyhqWivVNIuRVtmdpk733FafYYo1WbELkc8lEIJIveZE0lKh9eQ2dOsSMDdLFECjU345ERsYZnhKAMHj8FjoeD8qCphY51ZVaYUja1ppc2e7a1LAv/ugGu2tD0VYVuq2/fZr113IiTNYM85ow+iXTE9AiHTpsbBkiksYla1G6dS1X8wd1DAS84NGoiGwUltUOOaXVVhuwrlqvdelW+4QD5tkZh+5j+/SUbHemHpTLQCS8XcY3NQJxRMN56J5iroSAXTsP1hGIZAyGdeQtIWjAwUYItHvZPVH+Qvhwyy8iZT9jZarCnHC+ZL3K4aDMevHe0jWDdvXDvfbLm+62tY1O25hrt3on9VnT4FYSiTNPzEx4IE02ovc3Cr3u2GxJNdtgi86yFVX/5Vy/1ZjPJzMMsDxhVOIV3U20S1fvrvfbbvWNdsFxB9h5T5tjc6vhMSMLWqj30E4MCtipS9ebk7oM8HIpD6Fa+eeWHYqMjDM8JcBsY7jJpVMleqV3eh2keXErzm0zS9Z+uXST/b+r/2RLarNsfb3DBhWEjszcsFXL1lEfoDuLJKTdQSK6zuu8dHI0Zro4ZA2ZlNibQYEhtJo6d14qX67aZ12Nft1GD9nhPQ07bu9ZdtxBe9nCDrNZyla74oIKIXAeqJGWdELPeTQ+8RqYYhijTqcKuv5YWnYarBPGi2+SL+IMudXR8w5Rh1fEmc54XIX53YMb7Tf3rrebl/T5izGbGNhK4fXwXEHDj1ThAhqwQqP91pgu0bDGK85ozEUeDiqdGDckGuaYA3GTfFHh2+uDNmNwqb3goDn2+pP2s72KNbmRWaZIaP0h+ZN27duThvaRRVci8BUQ6gDa3rHIyDjDUwM8CVKngnDpZq65SrTZm3dIWhX7C69W5/7NIzX7/E9+Z8vbF/q+wkPS3koFhatURKTM0patjW/IqfPX/A2z0D18HbE6c3jwxDV4oeRLz/K6F+dOuyBNrK3eZ7Pq6+xpM2v2stOOtIPnFPyNMlYBMFfaIfKpi9jyLD1TGHofS7XIddDlBU8yRRxpDhHSXXZrZDoZpEk6JjWcCpnWQdfhNsrARVapDIhMqev1clspYv7WL263G5f022PSlnvbu2z9kHTUUpeCDiiM6FaacE4asc+vi5i5QwCiURGyBkamKHSNB5y8sefaupOttGilX8oNWkdlgx3Stto+8OKT7EA1Xxf5Efybf2pb8skzggBRclKgdB2GV6szMs6QYdvAGRhyYA6XKQPID324Ymvz7bZMl7941QP283s22MbCNOstTrNakTfE1GFd9U2mHkTqvgZWhMtXLpisCHsyQBxMfzCPivYWCAttrlStWGejz2bU19qx+82ys47a3w6aLi1Y0ZaJWmHChEfQ95zU6fzKZwQx428YnAWX2EFHXn9ikCaHEemPYg0GrfAgEMpEL+U1crMHNpn9+sG1dsXvb7NVNkN3JtOswnI5piZUz6Vcu+V5tU/kGTRlJofCCyqhSZnaCKtOSJ9a4sUbjiydg3C7+9ba4q5+u+i0Q+24RW02W/5KGiWoe+5jPKAA1THgNcvBgKL2Zs8LNPAdjYyMMzwlgE7FlER83MTttejU+qVh3T1o9vmf3WU3r2xIO+4WGahj5sNUBpMP4al+0FzLtboNlFgjzLN4XaWz0lHrHkj9NxC91SpWagxYlw1aT22tncjeCk/f2w6dm/dPD/kSNDIi46+SKD6+P+fzr4oZ+o3UEH6kE+GU7ccIzjkbdnliEPIxfIzpN/PhF/jHsCf4AKNz1RtffvZ9PeSytM/s6tuX2tV3LrVlg2Vb19Zj/cWy2kkasG4zWJHtr+QUq1bUnQkDnU8J6Yj27e9GOjvjJuKXIQ8FVlqIvNsG19ue7RvtVaceaGfs023zdJHv9vnG9wRzozBJQRi0vS05URoZGWfIsI3ALG+kOIgB/Yqn/n/Qv49949e2pnNPe6xfna+jzars90snrZekGeV9RURNho7KA6ShZD9gnsXTXZlz9M4PQUPOA4M2vVC3GSLhfWc07C/OPcL20y1yj8iCp/sluFu93GeX6fTexWS8vwfaDUQ8TNg8o4ISAE6cpYEbLiNdnwgkGVTKgf42h7tyR4LG7yRKCEoZVlPgAaJmXnm5qvYbV91vVz+y0ZbU2m2ofTpDlbRWlT6XPDCVhuwrIohF8aEJM6dc4mZF8cbd4tgLI19VSyssprPWb/Maa+zCkxfbcxdPN42L6NiKUXHTDoqRJoDyMGFgDWXyHft2MDIyzvCUAHoZnZppQj7syS3y71Y17J9+dKM9nt/d1lXY9Yun+lWriAF5eFaQtsvLBmF+OJneqJfF02jE6ugiV8i6Sn9lJ/TqJpve6LdplV5pXr32pucfaYfv0WXzdHma/ErHE0kEjRw9j7nOwLIQjMInPc17nE6ht0A6PKAqOzGM7oyBKnYgmMYZkSsyTq5izkKeUVpZvhcGnqD1xz0o/CB35nl5m4/Nl27RIPnDW5bbNfc9buulIfdrcKxqKCsUZtumRp/HADUTG8vrGAhK0qD9Iap+PJQNSwoL0n4r/uo4HN6pxKZXVtrLj5pvFxy9u09Z8LJMw1+0gYwVI23rX9pWvDpl8AhD445FRsYZnhLgVdrqkEit2G7r1et++2jFPvfLW+zeRo9tqHeok3folpiHb3RH3RSLZNhXF5Jg2VWYqoBAKyIREbJUW384p57KA6BqvWJdjY22b1uvPWvxbnbOUXvYXtLM2uUPbdh0vV6si1ACFRdEAcWatDr1eciDVHlBxNla5ILmHLbuhFDqviIDshoTsYfuAL4gdyRP0jH5kdngasigL0GTNXA1A9FQ8OwPP3koFyaRmKdlFQUPVH95zwq7/Oaldse6kq1v77G+IqtS2q0s4i2LNJmJrhR5kMrubURH3YU2ZOqontctifwV8gM6rfjKjrIqfVH/anvVM2bbBSLluewSp7rndXF/BZ2wHocOyqyvgiHm8er/CUJGxhl2cvhMJHQlYaUzAnVSdRzvTD4NIEpjc3Oppivl+NtlNfvod35ra7r3lpYlzanUZuJp+RNJuqbKnKM6uDRg/6QRMYl0CyyvQh/T7TJfp7D6gEi87hvxdAystcO6Kvauc46yxV1mPYojEAIaH/kSqZMXncQe5R/VlBugn8dpiODbUxXCf98BbQeTwXggh1vLWahDbPjEEk1SbupCraha8od7YRKClRN5W6kq+sZvHrCf3LPSHiv12Lp6t5XyYX9nPnNlImiWvBX9M1YaOBWV7mVUX8SZC1M9greHwFermbKYVu+zlxy5u114ZI/tqzRKFQ207UW1U0WxkCe0Y0hZWrjiyMg4Q4Ytgg5Mt4ydjl6DW9COnKBFeBVpvLxR97P71tuXfnWnLcnNkYY8XRfpZOq88ufbX6oblngjTvGG+UjFrUh8rtkJmw4uyqjVraskIpeGNV831i87abE999BZYUpCXkvqNvxCB5YDCeEid9yG3YkzHEEME4l5uPvtvGTcCkbTCGWJbs1yMTDRVjqn7pmGoG4GNfit1OVb15p96afX2x2bCrap0GNVXk1X2+SkGbMXRkODJTMTDHgModS5S4Yno3ZLtF2mS4p8e08D+ZzaKjv7kN3tNScstEVKuyS3eq7kZMxr2KykqCpuz8sOrv+MjDPs9EBAQ9fDqDfqDKmFYHlij5ZFZ/75gxvs/111pz3cmGn9pZm+e1nsXxy5ha0XitbOSgh1RL6uAUE7QSoW79issqgMWpcOHYNr7ah5bfbqkw+yZ8wKryyX8EO6srtepojpQsQfehJ2riT2pi2BPAX/gbCxh/OnDhnHcsRyNoEfGV8hIWd/PSM42ZDqnVUXj/WbffeWB+3KO1aqTWdbb7ErPFDljkMUOvyxVm8tH1SJBPvwXtE8tGP+miWHAza9ttb+/Mi97aIj5tte3GmJ1CFjVsrQmLwBGF6aHx+xfNuzjTIyzrBzA+mUiDKfGza2CQ9xpLoa+0wM6Iyn9Fc/1mef/eEN9nBhvm0qzfKn+OxTwDN0pg9YWgYB8EYda4nTH/gkkfD6MvOcIt1an00fXGVnPWOhXXjCnrZQPqZJFyPlalVHETVTE2jZAaGDbkY+42C0vyeio+9MCPTJYKZ6qMumclfqVX/wyoC5RvV65T3r7au/ucfur820TeUuDbqEUP3w0odzKK3HTC/uyEdoa47O1Uxj4NKoWdkGbW5tnb39tKfbOXu32Sy1dRthyYjImAeB7G+9JTwRbZSRcYadGy6eYeMe3wtX3YYdviDOAXW3DSLXW1Y37KM/uN6W1WbovNsq+bIVxZasM/Xv06kDcetK5w8P69CL0KXQhiFlpaF0uIUty9+eQ8vsLc97pp28Z7s68YBN4w29hutS/lS+oPjoksRL5wzLslrrpKOJeFdCoM0IbKEeEj5OWmJIx5J//PXWDWaf/MHNdlf/NBsqdft0Ql0jYQ0poO6bkSUx0xZug5TDRRY5shyxW4PvvMpqe9Mpe9u5i2faDNyZ9pCfgr/cw5qL8ZGmye3VfhkZZ9jJQRdlhQIdQFosxCeS5XRVvmR3DKrDXn6D3dw7W8TbrsssMJOeI681+QurJ0J3dQIWEQ+ps9NXy41BkbQ0XfxUB9VB19vi2QV75ylMS+SNHY3ZyAeyCPsb6EZZdidl/WfdcUCclsiwJdAGIPBk0qaNvE83YVUzuCc28BmSnVfYl1Ty9v9+fo/939KibchPl/YsLVptlivysggTVAk80mYK3j4cad8S2rRulUq6h9qruMLe95xD7Nj5XbrbaVi7/BTlBz17Rw+SGRln2KlBlw0TChChzphekKbTW+ywP/aZ/f0VN9itvW3WX56DDxFnmHpAx+LDnOG5veJRh2SukZcDmJ/keqE2CC1buVqxWfVNduL8gr3jhYttT6YhSEpacrnIelf0cR7xKJx6C4+PgkatOHdwB34ygaELQ036wzzO1B4+mLlWG+4ahiqqfAa6PPO5bbZCPr587WP2gzses8cb063WMdv65KdQqvlnpXhw59NGipNYQpzY1Go6ZRP6mri7oXup7iENuI0N9sGXnWCHTTObqTywjC6+3r4jkZFxhp0a9DUENHyvTh1G/XaDuvMjcvvE926x36/O22oRsb+wAUVCxuy2JrHO51kOxQMbuefYohFKZY2rOjlEqw7fKY141tAGO+ewvezVJ8y2RUqwIBJnYtg7hv6xoArNK9AyS+AgEZEx2nJGxi0jDKxOvTLornW1l2rUiTRpZ9UpJMrLJpxTx7woskaBr3x4o33h57eLkOdYpX2GqJWVEUVp1mG+N6824oEe88mQMW3Ffsg8K6jk2AiqZu2VuvVU++2Qzo32vvOPtsUi6RlO6DuejKmXDBl2WvCiRIG3q+oiQxHuJhHiY3K/9Or77ZbVNetrm+Wdke6H2kon53M9TpvewZle4E27QNZVxcM0R5sutlUHbGZlrb3kqEX22hNn2wL1xYI6LNMP/uFLxcekhy9gdh2aR3aKlE7r0yFb6rxOJcGawQFlMt8fSIehVS5ejxyZJsAOEXNZLal6pobZS2+3Qt3O3LfbLj79EFtU3mBtQ+vCq+m0Oe3hg2eg+FDryX9Fx7oZ1i3nK/KT67C10rbv7s/b16++y1fhMCWyMyAj4ww7EMNkhW3zMxmmJlg5oQ5XUQdlLfGvl9TsyntX2Zpij/VW89aWL4mHQyf0m1NpW2ivLIMKb3+FJVGQda7g+rO1VXptj9wme+3Jh9irjp5rs4cGrN2G9NMtbULqaMi1GtqXB1U+ZBGZcz1sR5RhQqAS0YR1wIBAtwyUDJrJmf5VWTJBHWtQZAOnoli1R+fPOWCGvfrUA21hfpV11/usVFeLyQ9t6sss9OdL3CB3xUCTEWGjymPBspIvWLXYZqvU2r++f5X95I8rXabYfGi4RbGR/hOLjIwz7CAkAp/0AESf29hAevqH4aJImHWg7JPLt9j+IFXmP/73ZltenG19pS5pPiWr+q5f6nDy67O5fqtbVAdkMb+0Lbn7Xgb+5hVa85DNza+1t525v51/UJftqXinF/nycdnKkDjh/fZX3YOnSnRUGY8DplB8dBweNI0PWACToQnVm88zJVUTawiTBrRItVPHBUiVwbVas2kaUOfK7QXSkN/5nANtUWOFTa9vsFytX23K3Q7z0T6M6kwnChcGaQ3IipCVFaRWrYmU2+fY+rY59o3r7rFrV4VNjHi6EJoU2WPNRpRP/UvEcXuC8mbI8ISD20mI03uihJxbWJ9acLWJDkunQsORxsTSMl17eMDsy7/4o63NTRMJ80CuIgnmjS7Flm+Xb0i5ojiGRKh1K+rWNce6YDG8d8RiXmRbsb3Ugd90wqF22qLu5LVmlsDxQI7slJ2MAXOIBW5/R3VCJw+yDrlk2OZABDTueXvAjYyJri7rhAVobNb/zEVz7NVnHGHzcgM2gyUuuoOpcQelxkJLLrCrm6SKOyR/G0/aM6smCpKPouRpSOLQJ+14TX6mffFnf7A/9bJUUkkoLdcFpEcz3wwklZJDWbZzc2dknGGHwrVhLCxXk/FNZOhbdAh1pJp6BvrsSpnLrrnb/rihZP3lmaJPSFJkLY2HF0LwD2lGggzfNxPR+rpg6cmS9PZqn83pX2EXH7e//fmB3f4yR7t3d/q6qB8W0B/GCUG9j9joJJy70Q93v5aR8XaC6pdBWLVM6/DGHpot88PtcmCHvDlyP3PfaXbx6fvZnIHH5KZBlwG8yJ2NiLjKPtU0JlQKAqH6ZISImStDGsA3FGbYff1t9l83POCrNgbQiEkPD6jKipdvjLBDSpCU7YeMjDPsEHDziHgPCzjnMgm/BfKTPiwJXaPz79z0qF35UK9tKHWrk/mCNIXlixD5sPpBGq+/Ztsoyc5Ly6yqkJZUUpeuD1oX214OrrI3nnKwPe/gbpul7lUf7BVZi1QburlVT/Wvuik9+mKaaLE3TeKWYTsDcUiDh6qwlQZn7lvadX03HZ+9z3R7+wuOsbnVddZWG1Q4lj4iD2qrgu61dGfDSz7sb12V3IR15zwPCAkMSn746stV922w//vT4/72H6+AhOkK/ZM/frHdt+fis4yMM+ww0C3odUG8EUW03EB4bOLCK7B8KeLOdWbfvukRW56fbXwktDLIYif88/KGNCZ10DxbNtKJIGh1POxsjYh21KHuNUMa8UuP2svOPWSatCpSlL5dFqGLjLklziX3p0yIhIEiww6DC0CwhLuQBLgVEloUKZbUvnM0YJ+yqGTnPWO+za6usS65+/RWgbsstaM/CNRBTM6n+8MHZpEZHvCK4JmykNua3Bz7znUP2EMSLaYr2M2PAQBt2uUB2djOYpGRcYYdBASctaTSjr2/sPF7waqu2YgQJZmbanXfPOZ/rr3HltlM6yt0+q2ozwUrOHPBECkvSPumL3Qbf8CmDtngQ6MFK1Sr1t631p578Dw7/5jdTHQuqpZWrDBMkTA1Qfemn/l+vBl2OGjJ0Jq0LYMzNmdFN4ybNBUk2VYv2wIdX37sPHv+4tlWXPs4E1g8BXCy9nliETZv4gG0ZNGwbOjXRKj4pAAM5qbbQwPT7Zu/us8elxsPjXkRBOJmwoTX611ItiMy6cuwgxB6Fh1KfcFPEXzWjBYK6kyybyx02A9vX2O/W7LRqh0z5U8dBA7nqB9v16HdcOOa0y0ovaXBhubqiMW8OmJl0GZWe+3AaTW76LR9bK7ol8kN9jVm7bATujRqNi7nRZCayJspi+14J5phAnCq9FHShcNdIGl3knF+lLy0yXV3Ee6rT1poxy0oWcfQeivK3R/aMfg2JA+y+5dX5JcwccVNXbLDhwWY+upr381+c+9q+80962y90mJbVtKpi8iZntjy6pmpIyPjnQyh0YPZmZDO17bJX847AHqpfwFDf3S3gUq/OkjN+iWZD0r2r7j1UVtf7LFKhS9zkA+2vVRYkS0bxPPwjseA6NhoP0V1GNd7pF13Da2zg7t67QOvONYWKvJuxZwXHbOBIrPOvBqtqPxtvKrHIyT5yLDjQP1v1gZyQOJwp32duHDgvXWddalNFxXN3nbOYba4faNNr+rup15xooVwGfR5nT5oyAiSu+jAHZmG9ULF2AFwbWmm/eT2JfaofA3oer2GsgBpS+a3s2BkZLwTYTTBTZ3wtj8mm0dCoQkDuoVDBNpeEtnWa7ZeSswXvnerPdpfUqdos0JePa0GAcu3iJNb1UpBnUhHf2GW79aJkv1BXJ0lTTmbWRywV515qM2T+3TiZyWckiqKd9GKWfzErm485CEnbLeIa8hdhh0FJ2MXkHACCTJUJqdM5eo6JAnNiiRdgtCQzfZtN3vdsw+32fV1NiQ56M91+qoJniME+mXaIix3LMi4IqCrlfygVWp91uicYXc83mffvfou4x6L+EnVn2VsZ7bcztHv2hiPXDmm7fXkIUN8gj86HBgdJljCYaLYLB4Be42veSb2eIx5A9jTeU37iyYiWke7p+EEqP8NPm6mE7QUlqxtzLXZNY9U7aZVNestdVmtXLABrotJIUwWK7HpT7km7VZBmdJgTWgpX1YZ6tJ9B23WwGP2puP3s1Pmt9lufHxS+S4WeLCnvDAXSCyqbvJQ0n+ueGfw3h7aIcMOhLdDsIIRp6kTNF1/LVp2NgXq0fGU+WV78RF72oLcOutiZz5JFZ/YYpUxn1ri4RxfBOetOyY+ivWGlUTc5VLZNlUb1tu+m/3ivo12xyazTWz/xzMGyZWvvEnSbUo0UxcM4j6QI1WTh8tfhu2H0USVPkbyG03C8Twi7T4inpHeWkaMJx0fdt9Kcgz3SMBcx4A0SeMngnB1nmK7feS1NHDlEUqY/ZVffnKsiBYfaxTtuzfcbRvbpksrzvlDPV+SpOvMExIaMobDWe/P/B/dcXCwah2KtKuyxo5f2GHP2X+Gfx1YpSGEsW6Z7uJdBtWL+JRJjGtiQjh4Ihl2EtAa0TjcguQkQ6jOkUac20SKvDZ9zhFz7PBZDZtZXWdlf2W6Hr4IzTZv3siEkAWhUhx5399Edt2BcSe2NjfDLrvqHlujaxX9+DyThFl+gryOgMvSZq4TRrZr23ZErFqOTnSy0/TNCpelf6Dfejf1Wl9/n/X399vatWutt7fXSqWSdXd3W1dnl7V3tFu5XLZpXdOss6uzSYiEh+sgv3xgqZZAfiLhxmPIWxA23KqVqvX29XpehgaHbMPGDbZhwwYR3qDNnDnTZkyfYcVi0dra26yjvcO6pk2zgrQIwno8Sd4wY4IE6Q9iVNdrFIBP4iP837pjnf3b1Q/Yxu4e65PG0pDGyxNvn4KQQaMB2LFWVXZeV26XptxdW2v7ldfYP11wrB0oP7prRS9y7Qfipu+NGCCwhuiaGP5sUoadFTQZhmknxIgvbfPaNA/shupVW1votD/1mX3om7+3h2yWbfTv6fm6G/9iN6HYPIp9SyqSH9Ydo1/w8DhXrVi34pnTt9zed9ZiO3XPDpuukHgocnfmakQEufAZZR3DQryUdE0IGRlvRzjJyUCelUpFDc2DAAmORudf//pX9qUvXWp33nGHrVq9yom4MhRe6UTrhND486VcIubOjg6bMWOG7TZvNzv11FPtFa94hR28eLGTHgIBv6BpQ5CtYLRmyxtsrGRYtuwx+8pXvmI/+OEPbNWqVbZ+/XobGhpyckazRObyIl3KxYDR1aXBor1dBN1jz3jG0+28886zc84+x5eDVj0/0lqVVnMAiSDfmFzVKuoQvC03qLI+KLd3fP12u7M+2wZq0otL7X7d60LXdBAZe4kDGeucjsjkxQzFsdumB+0vn3WQnX3ATOup8aaV6kOEz+1oeL1VYdJknOFJiSg+3NXwDIHvuNCqufqgFSQofbq72pAr2Xfv2mBfuOpuW9e10DboRrScL9mgtGdW0RTQhhtlf/aQb1QUDw/6mFOW1Gjw7hpab6fNH7QPnvs0myO3LskX92D+4M9Tiwh9CRfF5PbJICPj7QjI0TVir+Kc3XvvfXbpV75sl19+uT388MNOpIEYRNgiIjbBxo7/QqHQDB8oR9ABInftU/aDDjrIzjnrbDv//Be7HXfCtQLSwKAF9vb22Q9+9EP7+tcvs2uvuca1X0Z64vM8EkD/IFXfq0E/jyOZjojXYlkZNJ595rPsRS86z174whdYW1tbKIeXdRjEXc3xoikvatRtrQT5K79fal/5Y8WWl7qt1BgU0Rb8RQ8Enoc2pBVSxULNcEaOdHtaX2d/tl+Xvf3EPW2fvOKVl5o6pWvEeeiaqZHWBqsMTwIgDzxmQ/7UrjzOY+16UW3NNxB7Nfguk+x86sd32dWP1mxVaZYU4Q7558UelkUi3+pn0oyZjGjw9qYIF5nKa8Qv1ys2u/qY/dWzD7Bz9+m2nobCSIYZ2iP5+/CutIIcIpIK664TR0bG2xCu0aqxAomFaq1Ua9bX12+f+udP2T9+4h9dm6zoNgjyjeTFp8dpS7RiwuIOEbsmnbjhD/IrlnAL6RAHGnepVLBXvfKV9h//8R/uPhqeRhJHPMKjaLx/+tOf7IILLrT77r9P1xCikG9IF80W4YsbsPAlZmKP8eif5w94eXjJQnkfGBzwh2XM082Y0W1XXH6FHXfccSFMCsRTU8fgZYs+ke5tm8zee9k1drftadWuDn9qzrIjBim6AF3OX3mmHnQHUCd/cvPF/bU+29uW2ydeeZId0W42TXWc84cv6jQqUoMvDAs5bjczPAWAnEr26qFddQslw10YciU31qqrtdeKpG9eU7cPf/NqW9Z9sK3OSa5qaM8oBygkkh3kQz8omTf0ANpxyR8O9tsRHWvss+cfZfsovbLC8ZU+VvWwQ5w/ew63lUFDl1Yevj09cUxep84wAk2CaoLGydkdd95pRx9ztH3qU//sJOvapUjL7RIERAqSxY4bCFomgjWsWXv8skPSXMe4AMltSIR8511/cj/jwf0n8UCiEO3b3v4OO/NZzwpEjPjE8DpA8lhiviBX38RbJhI6/rkGcce89Q/wyE1irTKSxrr1G+zxFWzBMhrKO7eLEmZkeYNcrrx9qS3PT7dqe1l1N2QDyjNdTan57Shh+O91ozsEuLasCNoaAzarttbe+JxjbX8RMbpvo5i8Ki27b3sp+JeIMzwlAHWy3wRbqDoRoxWreZnKotWRF+aPmfs9dFbeXn7y062zb5WVpQGHfSmChstIzYtDweoufo2rdRH9QHma3bepYLc/Ljt3q9yNOWHT/1gciZKQlqsQw2SQkfE2AuQE4QGOaJPMCZ9xxpm2dOlSEW5ocND0qzbEKd2Uw42ZuLqfQIBOhgJkhHtMD0K8+OKLuWsPJJlCPMdPJNE1a9baueeca5dd9nVp7X3urn/uz9P306B5kzaABpvTKCQe/cvqLgiynErS3JlTrlWrrr1Om9ZlJ518Et7GAITMWuGCPdxv9vM7HrW+9lmuXfiSIZEoqYRuE9JEM0aD9yvqLI1Kn7VV++wZcwp24qKSzZD/ojqJ6+tUiMALIcGeiftTCcgUy9X8bbrQ1Ins+sFbu02+Zul4+uI5tribF4HW+3pkRMzlz/9zfyXfyBZi5jFLpiV/fNBgY6HLvnvNnbZSzoPyxlU0Z585JgIekMDP6mP8cJoMMuncRnDyUmMAHsR961vfsr98x19af39fuN2HoCJ5QiYuMTR7EAgnFwQBZ/3QliEdJ9zoliZauZEeJNjR0WHPfd7zQpyjEN2IpyqCXLFipT3zmc+0q66+KokvxBvjJj7sHjcZcsdgPKrEye0xueQ6Js4jo1GT5t///d/brFl0h81R9TfoCrZWQa78w6O2otZpvXXptcxPqHe1MYBIe2auONQUziJkt+g2Up2FHSbaG0P2Z8cu9mVsLO8vNCruTv54uKdhRFfIbLgFzfDkB63JHRA9jtbF+Of5XTWGWNGWy06NZfW/hWLg8565v/XU1ltR/YAXP8IHbqVh8+KPDKSMnCFvSJxPkek3lC/bH5YP2A0P8SWYkBZvbxZYeyxZrSjNuMXmVCQsI+NtCIgPwv3tNdfYm974ZidhiI1pCbTKSHC+KkHSBKFtRqCSJRcF3BUmukUEUg5zxsQN4b3jHe+webvNc28pr8NQVOQFvOQlL5GmvszjAVXm3DwPIWTID4SHaKWQymccOMaDk7nKPH/3+XbRRRfhkFwZBi5Vxcn3xzYouhsfXGl90kDqEnKEMlcvWG7Idy32TjYcAzadkz/dfbSrMxx30F52zB5dPhtMLtFacqwt9dvRoPf4lVQZMjzJ4e3PY7TkrgmZkD380Ji5n5IkNQpW1oDfLvE/6YBuO2JBt5WqAwkZI8dSktCso3+3IXOS8kJJckT/yFu/7th+c9fDrjgQv0+byY/vDKjzSMbh3+SQkfE2AORDu/Jywp1/+pO96sILbWBo0KcVnLjQcmk7+Q0uCAEBQ1iHO/ELfiL84Z7gvhI/kYjZmWz+/N3sbW97q/uRQ/Dj10K8/IeIWR53yV+922686WYfGGISZeZWk58juRTPQyzEmUhZuBjARdk9135MoMqoaJB41gueZyVWUtREiGE9WvCDdzQL3TD2qm5++4DZPRuKNlSS3wJL6CSW8l5TZ/CZOXWGAb7kIYJur6L5Dlm+xGqTuk3rX2evPLjDZit/3JIC9rxgVza6V/h+Gp/UT2n6GZ78YGBFAxagUgx6bTCcq+1l6D76k2zUbJ4N2jlPm2OzGmtdq7U6X4eRypyr+IshrLJoDvz6x9Riu2+tmrcNxXa7Ztkmu69f/UnxsgKDFRzFesnfAkUjZs7ZmXmSYpaR8TZAIMfQ6B/+8Idt9arVvmqiqV0iOONgBAlC3sTlJ1zUv2bDyuLOwS2EytnRRx9tPT2zXEPmmpP+iPQCed9+++126aWXJiSNCXFxWqslT6THAFHFh3j+Zh1/bkIcHlViDdkV+eUL1tXWbu96xzv9lk8Mq0gkpSHrPnBh56n0Gp189xdXWaUkMlYZeEqN/Nd4Ml2AivN+58nnchB/Htt4+SpV664P2tMWTLf95nZaSWQbn2FTLp9fJzHiUx7I78h6ybArgB6IFLEFZruI9xl7zbLF8zpRAyQbA5LpASdTB0oAwomcpOSHuzw05U26/rPf32sbdeTbesQLC7MqA+Kn5zqjTlLMMjKeAujgkGDo6GY/+clP3LD8jLW6YamYewzHMVpptLYWpiAY36P2G657XCQiEAZX3rp73/ve52fY01MLEE8Ib/4W3dlnn+3zuU6sSb5CLMQzthjE9LneXPMsE1dVuB/9PC3F7X4Vd71SsXOe/wI76MADPN91X2qE8IYfK355HYPbwjtXDNlq67QBK+u2UFpKQ8d6+PIGD+t8I3Blk9tKchs1lw4de2ob7U3nHOoP7bwjyLhmFPPnJtQT9lDaDE8NqE1bMExXOMtJGWiTAPC5pleccaj12AbdO/VZsSgi9W6D/+Qo2UNWfApCMu3TF5LDvlzZbnxktS2VEs1DZ7wiz2xYFHYLJK3hPjhRjN0LM2wVkSTjcdOmTfbud7/bz9Egw8sXukbbJj+4YTQgMqYiIEkIjWVirJ/l3K85oUg4PN5ASLgR/8mnnGJHHnlkUwsMH8/E30iB+O1vr7Hly5f7Ndcaff1tAtwIPwbwCwgXVnAobubBudYMQv70pzLEOfGi4n/txa/x27waJIpffyjHwOX6BCKMbmI3PLTG1jU6rcIrzyjPjYI6h7Rc8uV+8Q0Scg4ib+XaJjty0XTbQ0XpUEBqmyshW9QXB09YYYJrhqcaQvtuyfDfCVPyy8c72L3vYI3e+8+UptzolZLB9ATygs+RIAyygxQie5VChz1eKdttK/gCjcha8s01Dyl5Uw/Qv8nPU2RkPAU0yVK47bbbbOmyZW6HsJwYk9t6RMLFIpw2DYDoIA5fYeGaZ85mzBDJLFhge+25yBYu3MPm7TbXpndPU5xqLidtkVy1aq9/3eubaSSROSGmNV3I7xOf+AfnpUjwTW2ePHn+Qxn8INPMX1K26J+lavPnz7M991xoey5aZHssXGCzZ/VYSe7kKZqe2T12/InHe1oel7RYxBaqZtqC+HjgsUb94Nd3Pmx9xU5/iOJUSxnoPK7TQOQJmXMjSN51REvuqK2xMw/f22aJ4/lEe5qIMeGuJNgz7LpwmZPxQV0iUZLszZY557hDraO6UdKk676FQOxEEYkMSXxcO9blKrp0fpr94Pd/tI3uhYVsOnhQUgKTl7fhXpuhZUBMAFJxbVDn7OfA/g1cgrT8LbsUKTrUTps1lfzH2+jd5s61z33uc3bjDTfYzTfdaLfecrPddGOw33jD9fazn/7Ezjv3HMXRsGldnfbsZz1LWmjQWGO8TCcEgg+kd/vtd9iNN97k+UK7dbGUPVKXn2CEuNsaV+Bh4oBQS8WSv9p8zTW/9fzcctNNdsvNN9mtN9/sebvud9fa333kwzZ3zmzXiv/tC/9mhTIbxytNCWzIndLlRQ2JHJt1s0To+gdX2fJa2frzfJtMBFxirpj5a5G6/rs2LTJmWqOhjhC2PCxIK+63g3fvsKctKFqHBhhn66QMGTKkwcDuqyYkh2yjiZzMkNsxCzvsoDnd1lav2lAN1SDIfRrxoXUgZfqy5FTa8b2r++3u1TUpFHLzPqMeiaLgEeBvdEytIXsdepKA6ABktWbNGlt88EG2YcPGhICD9un2VO0GK4QyqrF0+tznPs8+85lP21577aXTYXIFkVxd09Tx/vvvt/vuu09hnutupBNenw7TFLFJcf/Q337I/vGTn5S2LqEssKpAcSSkOwJKMKaRzvOMmTPskwr/0pe+1DVg8hYR8xNNVdr6z3/+c3vO857tDz182RDXRKKlenybMC/yzfsXnz/y0/vtx8vytqltmlVrVeVPhFsvGt8toxNVVH15daBGVdpyrt33sWhXOeZUltnrT5xvrzpkgc2TP7E1rB/yPg5irsf3keGpCQhY/dWVgoqIOWjBj+tO7LLb1tr/d90SW16aJcEoB3nGc0r+00D689VBm57fYBceNtPefMwCmyX5I0YklmC8Wj1ZIYM5MkwQkbQgXOy/+93vfHez0Iq0BHQ7ktQi3D3VWDT+wQcf7G/DQcQgknUkF47xFWqOBxxwgL3gBS9we/STJuI4EHC87rrrfMoEbR3CHg+EC3EoPREb5MiKkPe+9732qle90sMD4oxpgnT6bAj0vOc9z+2uMeivoE6AgZzrlZpu9Zh8MFsjDr1nJespOqTpmjSURrLNJUY1IFIu15TvIZUddxFxSVpMu/VbT2WtHbNgnnUpAVKP/7cEull6IMmwq0D9wKfAmNFlqkvEKRnr0pVTD+yxWUNrrINP/Av0gS2JCBNnfBlmoNFhNy1Z5woFW9czqYZO4DvIBa+TQkbGkwAEFMkL+026bcfu0wBO0CLD9EOyBPBWmsgCcr5vRWdnZxAGIW6+w3n0H69FQIoRcVDALyZooMH/Qw89JBJm+iRsecna3LEhApZmG6WR8px+xun2lre8RVp1IHkM7jEtkCZn7F4nshfkhs1rAWJGWFnuJ6Ln4cdDj/fb2n6+MlaxcnWDP0wp1zdZ2XSUKeWGrKM+ILeGb86StwEr6nayVNtk+/a02/4zC9ap+MPaDMo0sn4yZADh5Q8Bma1h108yyPt289vMzjh8f+tsVCTDyE8wceAOhp4RDFMR0q0VZ5vdv6rXHu2DjF20JZ/cvVWCx0kiI+NJIE2EgJ3PkqdMaoxAiJEMRwBOElE7sdHQIpmTTjzBTj/tFO6ydV0eZCD1SKyR+KI9nkO4INrT1yNWr15tS5Y8qmusNZAgioh95cUYYN46xhP85e31r3udz0kzuECusjTTB9hjPqI9pK/r5CffsKpPTwSnmog1uWo3Xfcba5OGO3voUdututzmVVfYbkPLbN7gEpsz+KjNHXhYx2CfM7jMZg8ss/nVx2z3wcfspac9U/q04on58SyEPGXIkEZYZSP5RDwk40E9yGnAb/jKilMOXmgza+t0Nzbk8sS10JUlV35GWOz6qduXSwWr6iZxY77Dfnnb/b4iCDYIfQJKHu5/E0U2ZzxJUG2x6tjs/fobb/IGA5FwRoOGCg+0whla6kf/7sP2N3/91+7CNALTAU4wCeFNBgwWEOPPfvYzO+9FfyaXrccV8xQJlRUhDz34gM2fP9/PI1G3AsoZFv0EsESNN/AQ2nqhaFIo7O6Va2xFMexZ4f5GRR2eUAsc1aMqOhblp0va8QE9JZsje7nOpIfSYipEHWEqdZbhKQoewkks0JC95zWYtkCkqtYvy8ONgv31f/3Wrq/Ps2puukzRao3wGj4fI4CY6zxclr+iTFWk3SgNWVu1Yid0r7eP/vmRtr+S6eBmVsoH/iMPTBRBrckwYUTChKTYfKcVeCPpLz6lLeu2/bDDnubkGW/3p0rE1WrV80R8119/veJKLmwF7k+y6vnQb4+FC2233XbzvMSpCUwrQIOIX+HAMMkAuRbQ0Jl2kNviuT12Ro/Z6Yk5baaOiTkDk7if2dOwZ83QUeYUmWfOKtnuuZq113WDyBpRR7iTyJBhc0QpBKHfIcUScyvpDrRbInnk4r01sA9aTsqR903Jks8Dy6BW+Jt5hMGua2xIXy+02WPr+m3NJog+idP7x+TlMCPjSQLCAxDU6tWrAlm5S9IcY7QJ12kviIMf22z29PQ0tc4Y51QQNWvMXXfd5ceWIG9eguS4/377NR/aEUfMY2ugdFCw03AIl8yhl2QvSaa75N4uMe6Q6ZSQd8lwxHTIsPuaH0W87CswTVFMU/hOGT6Xk8u3aZDo1J1GyZ9mZ8gwNiBU721MA7iR+Pm8ca1ekZzpzvbwhZKtQStLY2CPYrTbfL4kfwrrt2hJX8eFO9t60SqSyvXVNnvwsV7ZIWqFlWbM45HJIiPjKQCSgagGBjSq+i/A22OMRglcFogyTiVMn97t8cS4Wie8sZFeMcHHTRHGVuBELLCSgnwsXLSomZ8J5ynxHmqEzqD4k7sBTphuYIUEX+TF+CbwKeM/jpw71eKPMBJYHVlvzGO7Gp9SUlx0ngwZxgKygfwFKQyQWAvIFhsImc3XrdoBs9utyG5uELJkk+csQWJFwGw0JVlE+JjCyOVFxpLbgWKX/e6OB3zarepMqoiHk5kwdhgZ09FHA4IajbS/scKkEcNPJEyrGCsenDZt6vUHXi0RVhKFE7f8M6VQLiMOAdtCM2ZKIRL9ihUrXOBahWvVLoh5mzF9emtlEsasbx2w0SJ+y6dbQkVI4R0et7/UsblBA2Gf2GgPs83DadCxwi/mb/jaWNgWMhDjGF3W0XGn/dEO411PYyy3JxLpPEfEvKevpa9PBePFE9MYL63x3FuGj9q6Z9OBVU8suSxLtmbr/Kg9Z1s7mwbpnOu84eovYxFC4ZSyruhaIfRdFAJ2Erxz6RpbK/2n4n0FmZ18/nYIGVOhFChWbjRpt7QgR7e0fSw3rySFi/EA7JNBDB8xOh4u88ZaX2+/v6OexngpEqPnrUkeU8/naBBfnFIYGBhIXLcOzxd5SbKxpTXJW4XiiNrqsHasY7CmEBzG+3GNmnUyT4UNunMBfdk1ZTrLlrAt6jYdB/U0XrvFc66n7ekwINrTbtsTo/Mw1pH8Rj8x79EtXZZtgZhOjC8dbzof9Oc04rXR7luG4nYZCXTHgzyWssX7LlbmHL5ghnXUe3X3VZEOEAg55AlfOhJcYVhKWePBsRSFaqFsGwud9qflrJ/Hy3AZJoMdQsaxQqN99HFLZrSf2Cjpa8QdzyeK0Q3NecxrGsTOMjHW8I63XGwsxHzrn+81MVbcU0HMO/FWWTc8gbzFrDClMDFhD+mNQJIsh2iI0X1xgn86yFZMeAYOKSPqMYOqexlXQqLZjkjLQGy/KF+4x4GLOov+4oCIcTf8E4Ri6cAAHt1jXJNFTHM8cH10nkG678Rr0R7Pox+O0W0qiPHEPKXdouEa9RePXE/nOfprBfhCcsJ/ZEk2yXf4piJX864NHzS3w6YXhvwjpEyjhVeT8MPiOCQvSB/BmHfm+3q8e7cp32l3L19jqD3I6lTwhJAxFRkrM22nYjGg6i8cDLvhByFnK8ply5bZAw88YI899phvBxnDgHRcETF8tBNPPN8aYiMTLh1PGjixZhavrBWeCGI+WToW0WreWgHCCyhHXAXRCkJZobwg6IRtFaSRNorJxTyaIPj4C/UZ/TDf25zzTZkUFzvp+vyy8scnmBrSShrVii6qHpnK4HXp5MvPo5Fuw3jEtILoNx02xoeJ8gri9WgHfND10UcftYcefthWr10TyisvTsLUDyQjf4RiLXaMH1mNabSC0emm85u2jzdgRDv5ZVqL7zXyXUTAtbQ8EUc8cg1DfDHu0Uj7wVBnnKfBeexzgC+WL1myxFatWtV0j/HEtCNiXLjFPI0FYkEikSdAzUPL7NRGEHTf2ZKlQ/aZL1nj6yHKc3VIbaSLzBUzXaaRH/++iFJqc1H+6hLe/ny7LVnf5y9/MLccUpscnpB1xjGJ0ZUb7VT+rbfearfccos9LOHlrbFHHnnE93ygcQCNGUfJadOm2cyZM23BggW233772b777mtHHXWUb7TO99aikMX0Rh+3hHTe8J+2O2KL6sAlBor9998fD8F9K6Az8iIFws8c7a233mKLDzwguTp1kE8Ekzo49NBD7YEHH8I1XNwS5CXWMXjd615n//ovn3X7RFGrqWyF+BEkgSpUtOwPixt3Eugpvoucu2yOUOuC/PqLMnSG4CBiVpegjXUW9RdSG43YltQJZePYbEchXhsLsd0B9ihTgDDYo/njH/9oP/rRj3wDf/YMefDBB5MpIuW1kPcvrbS3t9nChQvtoIMOsmOPPdZe+MIX2uLFiz0+4vab4ST+iSJdPuIYXcY08MfeJjG/7DZI/2ML2Eh0hOfV9n322cf71mGHHWann366fzsR9zhQj447nW4a0V/aP2lRb+xlwvGOO+7wfPT397s/6oT46M/z5s2zww8/3Pv4McccY09/+tP9emv54JoGA9UvX5BBuvMNtY2cfZ0OfuVYbwzaN1a12d9dcYf1lmaKg/PG5wzYX7uoOqsWkD/VLf1fslhs9KsupymGfnt623L791ccbftLvFEukqnmCWPKZEzw0Y0Qo8Tdq0IqAU7uT3990m4hMV5K+M8vftEFGI9cxj+x+V4GqoTwerHcVEKPjxMZ/GGnUwaCK/qm7uzZ8Pa3v9UOkqD3zOxpEhNhiS8+4AK4jwZxpsv05je/pakFkbQfw8FJgk/Tf//7328+xAuhxga5Jv1KJXw5mdeezzrrLJs5g+3Rpw7y5Z1Sv0KxYN/+1rd9MIvtsUUo49QVO7QR5sADD7Tjjz8uuTg+Yr26XfV5zjnn2DlnnzVmPXje5P+3v/2tf3UkrzbbKhQR+S+pPAxgDL7vf9/7k4vDbTFWeoQjzSXSUD/29x9T+ZRPtJut9BY0eAYM1ll/9KMfdTmhbqLshDI37Pobb7RL3vlOu0WKBMLBRky0MX5Im3AceShaECn7dxAVdqgyZCccf7xdfdVVTTnj6H5lf6N/P7Hqsr1VKBx5Y4A/RIMv30OUMG4m29xh3nPPvfae97zHfvWrX4U8JrXmr98rHuLAnf5EePLq5fCjhfr4u7+z5z//+dYjkmSHvqrqlLLFlojyEOsMYA90mLd16zfYr67+lW/revPNN1upzKpzhYYjkjg4MIjRp6gH1uOHNbwQXc7OPPNM+9jHPmYHHLi/tZfbmnXHMdYnwC0KRpI7udF+QV4VW3DXP9K/tl6wd339Bluam+MrJWo1DfH58MIziy0Jr9L5nV5JhF6zso6ql4FH7D/edLQ9TSQ9nS/gtn5TOQLbRTMeFlgd/Sk60xA113Q/8pGP2JVXXmmrVq4Kn4lH5RcxQQD+qaIkbCTR2D4gWMP/dAPwVlvUNFm7O21ap80Qwf3Vu/7K3viGN3gnGt1YUWBGg3Txw3XCzRShDw2FLfaAp64oaipPQeQvz07WvC7Mb0uIHZV8kl/8Q5rbEqH+GHyUnjJLR2OjoK3BiUJtEaQh5JPytwrSYNtQPjv13r/562Y9R8T6p9zf/va3RThvtArkuBUQhrpWzrzToyFde+21ydUtI4r2jTffZCeddLJsSRttuZkUMJAxWiGaY5QV4kM+1q1bZ2edfbbdceef/Bpbp6ZliVQ9iSQdyhDzEo4NJ/GPJUQf68avqe06OruStghhtgRf/YKiot+znv0su+KKK5R33EPdEgd3ma973evtxhtu1EBQCSSp9KLsBZkX+ZKm4iPfnh8GEeWP+vdr8ovszpem+v4PfMAuvPBCL78S8VUGlCXIn3KTlMf7sdLh+IMf/NDe/e6/tscff9zPixr4q5IZ968fyg1xkB59JcpfSEMylsRDHhg4Fu250L77ne/6xlmxvOm+DmINRqLnGoQcyxh8Ke/Smm+Vl/f89012W/806y/P1GDATm4DvnKi0eALi2pj2fMKX7RB0XKRz+bZ7rXH7ZLn7G8v2rvT99d29XsSmGSwYYTCBeOVlgIVA8l+73uX26sverUdesih9tWvfs3n0gYGB4IQqUIgM29IdU7iiHsjEGdEUpX+P1Y0R7xQ0YykflQ8vb190ryX21+9+912yimn2C9/+Uv3H0Ea3iBjgPCAvBN//HpG0/CTkKKF+xc5EDakP2nWLYGm5zaP9MtoBEk5FOU2MdQFgko+XbhFxNwxtAKIzsMpS9TBZuVOzOg00TZ9MGT/Zh2d+GO5xgD5o/w+wI2KayzjMqXoCuq4fgek8BMF+SJLnv/kOF55ggkkwvV4BOSFgQDNDJJGbnFzeaTIydHT8miilpyUwxFIi1v+KGsj5TkMOjFNR8o6Mp8K47KHVSe4YSddnaCYfOOb3/QvwvzuuuusX30OL8g2hjxh4mAdN5GK+QYQJOxOfIDB9BH13ze/+c32spe/zFatXu1k62VWuFgm6i3US86WP/a4BoM32Ctf+Sr/4gxx4JflY9xhBEM94aZwSo+7DNyIh/ajf3NHSd/DjTtSpoPO1AB06ZcvddkAxBHrM5QhVgo1H34MtG7iuXuo2QxZetryvoWra9ByQwvGB7o9tQCIkekIlGArKl+qv9vuedD36J4KQj6mAAqPifZ4ZM7sN7/5rZ188sl2wQUX2Le/823bsHGjNxqgopqES0UlFyIJRiGLGHkmEMzTC41JXF5L7h5IFOG68aab7Hm6rfrHf/xHHxgQBB/dRgt8Am98CVS8hj0KVRw8yAxxQwzky9NuAXQY0sc/HbkYtWIi2QaGAwNZuCUO+RurjGOBcocOmnRE4qPMo0w6PUxJg1JzI313kz8d0oh54OhxCH5rm8SxJePyoB/1BiGj2bWKmBakhJ24AsYvD4bplug31gt5Z07zFa94hT9MDh09qW9vR4hUbi5/lJeyom0iG8MkFZWARYsW+XGs9knLH/DY4umovPpgKFn3PpDkUwn7nc4nP/XP9pqLL3bCdGfF63HrOv5iHTCnTSreJgLy6XUjEK8Tvdw8C/RLXavUqvajH//Y57/vV32QF5/bV7xRuaKtbr7lFjv8iCPsmxoUaEd4oVQKUxPEExDS4LrHo7rFUH/UPe0HCSNrxEueCMrd9soVK31q5mMf+6gTMvmmzTBJ1ETZNIGIIVdPzY1DnMAbngcvmudrj4NbqJfwOjT5g5BDhPgQzYiUczak68vWbvKXP6aCUPtTAIWn4qLwUAlMyB99zDG+t228zeM6GmT4UCdCwFxvEHQK1xQiKlT+/MiFFDgnLH698WT3wFSQ/w8VhXMlEYhCUbcaEta///jH/baKzkCD0InGQiQwwgIXBB0xkgFdC/mgLAidd1TP69ZBOMLjmfJTRiLGbVsY4o0dIpqWMia4kKtOvG0INCru8QwdIpJVMKSfRJogtFOA50kI7bh5fKMNHQ/4LSppqT2Dy9ZBWqQzrPmNXHUxOq20iTLrdzI63n33PdJmj/V9qylzCK/4kVWvt3AOQg26g58Dlyedkh8e5nGr33QXYlhH4o+YIvxUwFvaMKCjYdIG3Akhk8TFh2r/4R8+rvgLkvdAaOQpyEdo5xCh4lBYb4+krl0bTkCfcr+Kkx8gJHVKWkuXLfUvzjz04EPNPhG3av3hj35sZ511tq1ft97zQby85FQVSROnLwtVGK8rmWb8uoZLkCVIkGuch/oOWQ/yE+Kp2z9/+tP2H//xhaDsqE5H16uXoYmQXjAB9GDlzI5avMBKtSFrsG2sX0cnlnzLRi5Y1katBOoMOR7S9Q2VnG0ae1FPywg5niQoqBNKAuaC3vrWt9ppZ5yp0fJBEWKYmwI8GIKAGBVDBQdBhLxDc8jF3ank5EhRk/qKDRUOTUe3pcO4GyNqvujGyVfpMJ1w+eWX2yWXvEt5RuMKpBs7nUeXHCP8PMl/SCcYhy4xwnpHHHbdKhgIEPoQVwgX452qiXlKH920gsSfx5NgdPxjGcoT06M83pG4MArBPRgQBtvN4xtt1Aj8D3Wmjhg7aCuIaSE7oSl1zjE4bpZWNMRO7oJhYK/bO975TtvU1xfmuVXWvK8WGQb58zofDSKTcU1NkZOH9vZ2mzN3rpcj9p9IHl5GAni4cCRP4TzY04Y4CMPF0L9K9r3vfc+++J9f0p0gLyeIrETE5C3UAxEFUo5oDuAkINCOiXVYjoS0e7x7QHlZ9thj9sY3vsmGBpPnNirrlT+/0qcyAhHLTXUIIVOmkN9R8SXn8RfcwnXKgAt1HPpO+IU6oz8FpYDnUawS8bIkJsrA5ggpBkMyORND2e4zzLoKrJYIWfPvLspwNwFY7YYBUqbJlOWKbSLjvJPxcK1OHGNIT+uIBaZRrrrqKv9S8aVf+WqYChBK5eHNzGMDNLUTncbK8jIlv+jOD+GS1d28UrkWTpuV7GFGgYbCvVIdCmQvv6wL5rM+l176Zf+MEJ0A40SddIgMTw7QcbYnXOYElyPZ0TBZAcDAizzxvKAyxAxhIIUtwaOSF5dznSBrxx13vD8zwC2S8FQQppYk8Yr7zjvvtAsuuNDvQEHsJ/Q/+hOZ8Vt10lV+yB/unEe/W0Poc8MDCf3/t9dc419H50MEv7/+Rjvr7HNsw/oNupMpiuxr1tnZEfwricgbEHoEcXpdTQDUp7cAZROV9fUP2Nve/nZ/HwG0VreUObQib3TyBZDdp7f5JlawiM8L8wCv6U+DLuk2SDG41nJF2yjNeK1oD/8TLUfElCQhNh5Pa1/ykpf4pDoCS6UzUlHhrjkJ3L7EtuY6FQm8MuUe4pKJ7pwnjYZJu3uzpcKPBiM9rzsiZIHQmXYo+DwX80qf/vRn7NElS72xyBfHKFhjQfXuJsPOA5o/EYFtDkSPOyc0SqZGLv3SpaHDy7gcSdlA0WglBy7WAiQeCC9v5557rrttSeZaRZwiYYqCfvHxj3/c5T2sgIhyLe2OI/1IfrD7ucJ5N5Od/Hk/axGuoSZ9K2qr//Vf37Db77jDXvva1zpBkwbKF1MpLOcL6ZNsnDoix8NuVFXrA0KSd36Kl3CYFStX2Of//d/dD327NUCsAbTqghkdVq6GDyqFXdsgZgD3hLRx4BLuYhDrtaKt7jcbai37Y2JKZBxILu8PI0468STr5zM6yZwrDwP8CWdSSVEwONIQ3G56g3GPkYDKdQ2aQuok+A/hQ6XjS//8KLjX8EuDeCIID0gnTpWs14h94UUXeWORhyiE8TgCITvBJPYMOw+2V3vEedW/+Iu/8C+mIBqcI1vQRiQg/0sL3GgonPeHhHzoF6zTJQh9AWwx/FaA/JIJ4mLd7hVXfN/d/QG18ki66ejJcxhUwvXE0c9jfrYGrwfF4X2YvqwfGvHGTb323Oc/zx586CGf3vABTD+InsGCPAH6os9he8YS5SrJ45h9cAx4ULwSVCeB+OGUov3b5//N8xDqpkUk7QkZz5veYSXewFNeIGOpbG53b0o38oBnWRaVzPepeHTVRl/wFnxOHFMiY69MKkIZffVrLpaV6MIohbv7UYMwertdbhgagoqikeQqodCBEsjg1xtEf4yoYc4qkD6C7J0Egg3RewUmlmEkcUUiJj4XCwRIv5zS/v3vr7crf/5zz3vMl+d7DBBqxBWdJEm4mRBiRGMnNXUk8abzNiKPW0jX/U00Xyn/rdcFgSaa0FQQ02otTZcVycKSR5bY17/+dX/xAFkKKxcCyeBGdIiqKxTYQ+DhenB7uCtDMWFp1tw5c23u3Ll+EX9umgEmDtJGbMkv65+J0bVetylizyMyzjy3+pLOnbj8jlAnjnD0h6XRCaTtKRBf7FMoNN5vFD/FWLNmrfdr6ijMU4f08BPzxbz28HmIxxPzePAxXCHYhs+G4XUmv5TR85IMJPDH4OCQfe/yy73MXJsIIONZHUVrzyvPsqf7vsfkJ6kr1KGMJMOWrV4jYg5lnAymRMahMlXpIrcXnHWWHbj4QJ0pkzSqDLc/GJ6Ex4agsmgkGixO9kPM/paNGratXLbTTz3V3nXJJfaJj/+DfflLX7IvffFL9k+f+Ed7zatfbc94xjOa8VDRxBHT5Bc7BvB86M+v69zXMCptRmn8fOe7l+sYluB4gyIMCaIA4eKGeDwuBAG/iTvnHnvrwDfxU+50mtsCPneoXLlmMgFhxFcs20RKQzk8RUiq5aLEmpssQg5bj2Xi6VEu194gFZGpl5O6UdIc01ok7RhlAnAMfoN8VnSLHuwF23ufvWP2h9t+RNa42HoLEIei9viDBhoIzuVL+eaFFADxehkkH0wdFnUtpuPTFN43JO/kiaP8B2Vpc9ArQs8gXpQl1ZfS584TzZR0Pay8xGlKDyF7rDeu8zA/aNCS0yTfTu4EpFBCGDBkT+KJ8DOckx/+ORKqVCzblVf+3KqKs+U+0Aj1wYa2c6a1qX4qolX1zwYDiuJV+v4QT2oxr+NzRGd2TRnlUuGWrlgtMp5Y/0ljSmRMxZIRUmcN4Kc+9SknZuom3pLgh4qPjUYjc51/VPzcOXPsxS/+c/v0pz9tf7ztNr8l/Nn//sxfu3zb299m57/0fHvZy15mb33rX9i//uu/2u9+d63df/+99qVLv+QL51k77Ldk+gUConY86REgSdIOjR46249/9CPbuHFjU0AiuOZlUyOGhiTjwyTv6eg3TPzJhRaBb68X1Z3HsQ1B8RETHpqosF7mEbkbo24CIFSF1HU6QKsiFevO5yxbEfonA1RhLgNqZ46h0nhTNEyvBS+xVlVTDIAqO7KH9uzX9AdJM7/MwzoPK3977bXXaF6ZMtLxkTZL2aJ80Tea+dJxv/32lbJzmj/jOfWUU2zB/HnBD/1SZQkEHMrkg4yXfevwNFRXSE6or0C4hI99qekm+xGHH2GnnXaqnXX2WXb00UdZZ1f4OjpacwTl4tkTcVPvI/IyVh3KjTYbGBz05bWhLC1CYWObzpo5wypDzBmPLvtw2ZwPBPLkMqG6WrV2vVVqk6fUbbI3BREgtL19/Xbsscf5Rj9BI5bmm7wqGoXYhUSVxCuMr3/96+zCiy70vRnIBZVO8ULlhw4+rHVAfiIZUsOvhId5qne+8xJpzl90gaoMVXTUYEDg0UgqG/LzTpbk5ytf+Yq99PyXhPwqLOUI+Qhl4hXuZqPi7vkaFjAGDzYwST8ZHheheJ62a0zK71VXX2X77rtfuJ5AuXSvE4dKqLJFHHfccfbY8uXJ2ZZBmSlneHGgbhe86gL7u49+NLkaQEcLnW0YQfOgzuj0Zl3TpllXJx9HGh+XXfYNtf3rR8U0PqKI0uas2PnNb36tNoxdZ+u48eZb7KSTTvJ4WgrlXhICUJjY1mSDqTLuyuKUGZg/b76/Os2beU97+tNs3m7zfJC/++677Be//KXdLiWD3dCQr/e+9332nvf8jYcbDU9DaXd3T5emGuLeGuh9tJ33GQYFuQUtGFvQkFkrfZz65fvf915/IxVQf/gmTVZCfejDH7FbbrnVw+AW+4HLEwXfGuSvxss/CflHhKAhPP38/Je82N+M3WvPPd2VtPDE6g8ePn71a1+zVStXu3/ACyk8LA2kLIckKxxGtyRutJXf+erklyrX8ccdS0uOyNOYUHUPiWAHVY7bB83e8p/X2tJp+9pgHs5RvI2S2kbxKK989qsmzRmtGc04p/SmW7/N7XvQ/vsNZ9i+RQ3cIdYJYUpkHIPSiZ14JaQsHXs7m5WoAiCbtnKbC4nPuynje6oReH3xiCOOsC6NhlRSkwAVXyS1sbKFH1wjkfoDQ90WvfrVr7Yf/OAHnn4k8DE7HU5EkDqed+559s1v/ldIO52XFMjLsFtyVHgGB9ZWs2sb9pag4OSNMtBhbtMIfuDiZNc2RRFibzGuMUEH8uLYIYcc4ls4tpI1Oib1xu0qmXjTG99kn/nsp5Orgudt/IhG19mWsLOTsaeXlId0aCuXPcLriLxzdVbPTPvnf/5nf7mJnQTj3irUI8Av52z7ysZYr3zlK/1NUEh7LBD/xMk4gPzQhigaDKho5BSBPHzn29+x06WF0t8873LDAO+78g8Zfv7fv2Dve//7RWi80BH2ToFcW22o4C2pY8XPoIA8UX/PPOaZ9mXdzR5wwP7NenTfiT0eGbTOPedc3/cDt1JbuTl14fHLzQ8yIYZh4N+VPdU5ys6HPvQh+5t3/xVXmumNC0XIsjQWLN4n87ovXGsPte9lAwy60pH9s0vMU+qsUBfXjSDjhnXZgM0deNS+dMGJ9oyuMPc8UQyrUZMAhfeKojIRQlXExa+92A488IBQkawzFjnSiVhx8U+f/KTdfvsddsIJJ7hgAB/FVEBvjISIAXGONvjxik1+HR3tGvXL9sEPfNDf7JGXsGJCvzER2nHE8e577vZXNImbjpNGTJcGHs4H7jLKapjPogytdRyyRRFCOYKWhRuxuMHuJqY1cUOhQn5II9hjccerFuBCTEdNyuoPqATPF9e3kq9YJo7R/mRFKBNHanAkWVCfaJqvec1rfNtHXo9mO1eIGD8QW7ouCNPV1eW7zf3617+2E088cUT9pO2TAwRMZrH7PydipkXIFzsKPve5z/V1viDIMukGmeWcPDCV8s53/qX97Yf+1uUaJYf11J6/EO0WQSma3rAoHNxAXMccfYxdcfnltv9+gYjToH7iEbP77rvb1b+62g477BCPx+UXjV/hYp5xT4KNgE+1+DUGzKra5/bm+dYQ849h3ritAAWHQVc5038Q8j5cguSc9EwDWL5km5ItVyaDKZExhYxaAEBwaQD2wuWI5tcuwT3hhOPt5ptu9HnfQpElNKFwsY7CcetF8AZLqiZoRiGC+bvP92+2xY7AryUoOPu48nqmnxJnzJQQBGDYRGDF4BP3Vhrb4eEIGNJByFzYkriwpNOZDIg3PXhQ183cbSFqT5frSfoeh47RtIKp5n2nQSxwUhzKFeo0b+3tHfbBD37IPv/5zzvZxWsgHscC13jzDtJL11PLsjMOaN3YdsSE7DPI8yzlE5/4hD3rWc9SGiPTSTfTSPeGXfKuS/yulZjCoB7cQyR+OibiJZe2JH609D0X7Wm/0SBEXUGWUS4jiHv0OYPXN77xDVfYGg0+cxTu1pqSTPypMjQht1AXIU42qG8VREfsBZNWrWN3R8nySpuXO1whThLF7qfuO9iwcyNTzZV3LBljgqCGqipJEF4pbYHbNs4/+alP2k9/+hPf0pJsQg5UWDDEEQV5mNS3hOGwiUagOBn1y9KQ0Qi4rUIIWgWbWQ9KcMk/ccYypbG5W6juyVW6QiX5B8SqlIN9jLQnA6Im/jBvqPiSKJVqsIwFXYqaBfaJTANExLxvizLsWAznPw6W3DVQMcxrokFSxij3EVF+IiljjybtNx63FbxdFadP38nKnPb5559vL3/5y70kyBd5a8qc52m4jzTzKNMmDf9d73qXKwrxGv0pzp9PBGxB8IEPfCCJn/RDHJwDjzupq5g/zjE8U+IhIykWSzwHcm9bhecxqV7eAGwV6i1+d88ubTDR7BndluNbdyJjp0mPczgTKoX+q1zhVNaC1RoF653C1m2ts9Y4CBU90sycMd0++9nP2vd/8H3XkhmpaftY8bHCh8OMTcRjNT7+QfOajr29m2yQLTmVCEt5xgo3FvDHvDbCC2LcYDhvw24RwQ2hGhmmVXju+OfhJxfHeBguu/IeRSVxap6PhWY+wtAQY2kVsQzbsiw7CkyduUwkdYICgbyyQ9mFF1zQlF3AMfgJMh2Rroe0PR12WyHmIZyYFJOSSPB9VnISG5btVgwtf85ZL/QleHLxCJ3sJwF2bHzpS1+qeOOdxTD5hrQCkNmYPtejRn7eeef5kT7eCsgneQ6DR0NKVnglvBV42goHE2FmdHd66b1CMSOykJSBf0pHJVO+C/4mXt+O0ozHQqzsiy68wJ797GfLNqwNAwod7eljtKcRGyxej40U3dFWcL/j9jt0S7LShQ/NuFXhIR5e0/TboARj5WPLmKj/BCqC015Stm0FykT1YEK9xQvJcTyQFdeGEGiZOD+3C4KHPzwEc1lNppJmzphpP/zhD30JFhokT/mjHEZsrR1H+99WgIAYQPyOUFngKy377bufkwRpxj45Gun8RjtHwrAKwSPTebgW4hoPzZgSL9TRJZdc4n0yxj1eeNzT16KdTyzFPh/mCpqpbBGenv7GK/f4UFsnct9eLpuoJJmiEJqWkaDuQ7ZIi3cWJt9vJprbrYKK8ErwCqknbRMqO21GA7fYaOkjjdEMB6nLnaelHHOqreuu+72Pvvhl0h6hHCv+sUAYN8ktGdh62GG/IEyVTA7QnhIMZntA8TZjHpntsdHMh9NxS0GeikDmRisQz372mdbV0aH2Zu1rxcrFkXdz0e8TDfJK2nxEID4s/+xnPmPlcnigiGkS2iikZT1tpyRHHHGkDzguolGKtlBEwrOvdURPT48985nHePrwwcSJkdUqPXbAfvurkIlDzMc4IJ8qsf/wOuE2URkaGtBIpUt3F3m20fR64WG23Bus0sIf0xcF4wsg1Vzd6vnwglC+1JZMZ00O25yMaRQqgeN4VZeuJOyjDWHTJBzdqWO+pLtm7Rq7/IrL7eKLL/bP32zYuCEIpeLjbT/3OxGMl9ExQdyp+CcUdnNMMKdbwKh8TQJTLMpTCjyApjr9iyzCm9/0JsminCRnJWnOTZlMEGX1iYYvPVOyYYP/gs2ePcdXbDBdF/tR+iH71uDl0HFad7dr2rGMWysZ88HcUcSXS+Yv2F2EPNPtxDFRkorp7rXnXvpPxU+ibhVFq6G81PIfWETtLh5BGfZkecEjWHRVP50zl+w+YdBwyR/i1ephFdJksM3JOC2gjIZjCWhsIMDR/ciEpW05Faghgt1kjy5danffc49vz/cvn/uc73/x9Kc93fbYY6FdeOFFdtll/+XL0njnn6U4VGhay90agtgFjJXPDLsmePDpK3M4kVhwy3/88cf7tSgnUVnYGRAIl69g5HxZKXIdl9rRB9N9cmtwvypXt8g4fsGkNYTpEKoEwjr7rLO8fmIdTTQfMRxf1H4i6jmmwBEz/CZgvEcMNA0nc4z+giMneflgiVs4nQy2i2aMoeJdW9VxtIlzvdEvhhH1D3+8zT74t39rx59wgh2u26RnHnu8HX3MM+3MZz3H3vPe99v/fOtbdv/9D2gEpqJYVsd+yRSdNbLcWrJYfWKdZCJ+M+wa4MsXAWGp5gtf+AI/S8vrRLTN7QvyQzdWf1MfYD0z03Wxf010esAJVUfvY+parfYOupGSDIOYLGfrjjXa0/XWCqJf8tLR0dFyuKmAfILm6q4RaSaEPGreOGw0T8GDD575Dk/UTBzbnIwpVGyA9HnacG3FihX23//93/79qtNPP90WLNjD95rgjaY/3PoH/3AhD+VYrpZElIQNT1vDxiYIT/jEOHFC8uyRIW8Tgprej8SfIQPzf2nN99jjjmvadzaQT4jDpwF0nD9/vr8NGxH720QQesH4c81jgT4UPxxBmocedtiItLHv9P2L/OpHqfmOZoCfJUSsMug/Vzj1NcicJcXC5wRuzDfDlMh4rMql8qNG7KMyIw1G9pWr19jVv/q1vfj8l9oBBy72aYcvfulS+91119u69es8LFH6elfCKxwPJnibyGsgAf6Cn+E8hEYnbSq0daTLEAUnw64Nly/JHlNeiMfu83cfJWc7D1BGWAHAfC0dYtasWd53QhmCmQya4VoMznYAvrex6oyXNngbd3TaE81LqPMnkMST/PGfOfjAx1unSC+XshhX4UwWUyLjsSqX27o4P+QarEbs9Rs22Bte/0Y76sij7IVnnWXf//4P/EmtV7X+Md4wR+MdIKl4nz9W9D7iu1OY+ogLxz2c/pGHECLkZ4wsZcgwMbhASbYkg6yRd4LbSRH6S9CMUV5YxTBR0ts2oBeH/HR2droCFfIWsGPyNHF4GWTCR2cDt6DeBRVvdBmibw46yhSmUMwpkXEgxZGG0YEj80X33HOPvfOd7/SNdL76ta/a6jWrfXrB9y5ObgNpQo6+QY3CebwaXXl7h3ISV1gHPLxEpkm6mKQuQCBqWaZQIRkyIHPhFh3ZDK8x76zwvpAcsfDgbUfB8yC0tYX6iudPBoS8wkaBUgaGhoJd7k0i9mmJYQTNOVA1kxQ8wuMN5MliyppxJOFoGKF5xfirX/2qL7H54hf/0/d/gKQRcEiaKQbCIuj494pollKF43qiGQfyjdkcmZ6f4z9VQ08mAciwcwIZind3+he+d7cTyxV9gL4QFZwdgUBTyocOvkY7OD9p4HUY/twMVio6Ug7KFY+yxYKNqObgE5Yq55O1yJPAlMh4LGzq3WQvecn59uY3v8U2ioTj1po+3SBQlvj6cfhYoUjaz1UECVJTmJxsheDsYI3nMPio4fC8FHPF4a0pP92OIIHtnkiGHYywXlZ3YpIpVwgS950NruAwV8sLVhL+oKTsAKiCuKOFlMPvyQWvNdVfzLd//UftD8Vi/IGdbOE6tjAEugPhdNT9vZWmQEBTImMEgcaPhHj//ffbCSeeZL+8+mqryL2uwlTVQIVSkeEyqPxyj6OQh6NEHh6LrngJkzOd+H6oTsKUlrRCuOnTu23xQYt9b9hzzz3P2jvarcJOcSHCGJsHc7PNMCoy9jndKbDNC7rLArlBu6M2RyoAOx+YJ3aNWL90X3zCQVdzjdh7XXR6EkF8pf8Mu/TogYEh5y/2K67lClZoSPljB7k8b91pgHZ+S+rcy1yTrAwYVDdZTJlJ0BpYfsbXWM8QMT70YNjMnCVmPPyIhA3C6EIYjeSc6+evcMoenlyHThBGWNZ7Fn17zAMPXOyfaHnPe95j//M//21Lljxsjz++3G666Ubfr/UjH/mwkzbf9Uq6UCBt7CQUks+QoSUEGZLYJHKbYReBmr2eqHOuGbsTFB2GGH81mnnjlAKWXNGgaFbIsVF/cmESmBIZMwpjeGX0DW94g61YudLJ1R+kiVCVx4QUhw0II3koiC+e10mpyFcmKly0uXNm2yWX/KVdc81v7KYbb7Abrr/OfvqTH9vffuhDds7ZZ9uc2XNGxMlbeKw1Jl2mLrwPYTJk2AaI5JzhqQuIMM4Hc9jYP6gjxJtovroYLjNlgQv+IgNhExE3qtYpzXiy0jJlzRjy/cAHP2DXXnutkyDahL95A+FC1uGRY7OgDgrIbaCuhz130ZZz9pY3v9l+9KMf2v333+cfJH3G058u4p3tG9R7GA8rvvaVFljkpjgeX/64fzaG635NntLJZcgwKSS9KpOmXQBqYucPHXnNbO2mfp+GYIXEMEkzLPOTPZGNcAa/1azUqFh3e1NsJowpkTGLzVesWGlf/spXvRB88qg5JaEfxOiacVKYiEDC4aEeu6zxXbObbr7ZPvOZz9hpp50WFk+7hhvI1jVpHTEgrLAIMzW4/OTHP3aNmEwwh4abe5XBT9aZMkwEw/IiAUKOMjz1Ia7hi+p8B29ApxsHKk7GgYIDXCr0L/IZ7sHIj5Nx1aaVJy8yU9OMRXyXX/F9W7VqtRMkewNDhmTY538T+2j4RL+u8/77BRdcaFdeeWXYfzUhWRCJGOAeEcne45c7hH755Zc33ViZEcN5xSW/DBlaxbC80BEz2dk1kLOaCJUJ1A39uuPPt4mYQ+uzBwWsE7VhP492lD/4RmGL1SHrDpv8TQpTIuNKpWb/9E//JBtaMO/ItxYdmi5Eeughh9hnP/sZ62hrD5qsQMHSpDwa0T1o1XX73e+u9Yd5cZmbby7vNefeMmTIkKEFwB8Nkz5sa3obVi2UpBkXpPFK6WtyiSxsn+kP+cIqG7gGHmJJQofor0P0NDZzbR1TIuMHHnzAlq943FN37XUcAh0LkPc/fOIfbFpnlweLJMsxbU8jasscmZcmzcsuu8xXbfQPDVhObkM8BGw9GxkyZMjg4EWzmihxXd+gVXMiYxFJwkRugjYMCYuMI8fAz/qVxD1zZsywsgh9svQzJTK+4847fS9hnx7wV5FbW5OJBj1v3jw747TTRa5xdBkm2ki6o4FbfGMPw6by3/3e97xiWErHxs7l0siv72bIkCFDK4BGYbC16zZaI18UrwQOYo442OAVuCkcI7CxtHZ2z0z/ft5kMSUyXr1ypZWTh22MKnFlxNbACowDDtzfJ8z9YclwaZtEm0YkV/+va2wy1NvXZ+e96EX+xh+3CfVamEOu1sIXDjJkyJChVfD1DshY7GEbBgd0DI9xWdLmD+gwvr6Yzy3BRbwIEqYrGuIdXHab0Wll+Zws+0yJjHs3bpJKq+wkm/z4VpctAK7kO2I+v6vCUqCxChC15Gh3sLpaEXzlq1+16667Tg7MMbNWmRoiFo7uM0OGDBlaQt0/pVTwL3VsqtRtCO4Rp0Alzk06h2al8lnNOYu38OCtwFGlQs4WzZ0pMk78TwJTIuNIlszZkms01FZAmEceecTtYRzZ/IEdfsbScHmZ5Ctf+bK9+93v9ikLYnCNPCPgDBkyTBq6sxefwCiPr+uzoVx4rxmCbjSwO+3qCMfFo1kxl7ei7vSLlX5b0NPuZDxZTImMfRPpgkYT3+hHkaGhtgCmE/iSB68yQ+D+1l7CppHgIeJoD6TLm3b99i//8ll717veJTe+KrA5WU92VMqQIcOuC16D5iEcTPPomk02mCs5I4WvQDN/LKpkKkPGP1Dq88biKPFXWT675TarQ9wmLpssB02JjOftNg/29Jc0INNWH+BRCHbEuuSSd9mDDz4YXmVO5psjAUc7ZA0x33bbbXbWC8+y973//b7xM4SORhz8ZhScIUOGyQHugoxZ1rZOOt7yDYOWaxOzyr35FWhd83O3BzBlYb6JUM068jXrhE2nwKhTIuN99t3Htxh0ElaO4z4TrQAiXblylZ14wkl26aVf8fmZKi9siGSx84Vo+JmXSk486WQ7+dTT7Pc33OArMcLKi6CFQ9S8xQdpU6lycPdI6Jy7e4YMGTKMA9ikIm65d9mQVUodNoTy67wh9nCNOKw3Dts7iDadpOGioA1Pb8tZR8mM+/XJss2UyPjggw/2r7fCe75Gj+mEFnICUaLZstvbxk2b7C1veYstWrinnXLqqXbWWefYC6UBH3f8CbbHwoV24UUX2c233OJ7T4RldIHI40smHPlkU9jLWBXEpLqOYTs/T8zPM2TIkGEsJOqb9en/XctW2KBPS4THdX4lx+SF7I28yDgQcUBYPJCvV6y71LBpYnRe/5gspkTGbW1le/VFr3YChPQKhfDJJeAEOA4HBm02vIXnxCxSXbt2rX8V+ue/+IX94ue/sNtvu83Wr1/v89HRH2HYSJuoWdcM4ULCuM+dO6cZdw0tWdnAX6YVZ8iQYWvI6+dkvHSFv/Dh2/GKeH1FBZqxk5nIOJJaoi3X61UrWc32mNVtbTiHq5PClMgYvPZ1r7Xp02c4OfpDNRhQcFIehwcDGQeN1f0pCOGdYGUv8DFDiq8T39/YveR8bpp1xABSDvPJ5lt4/vhHP3Y/cTAIieMiD+PkI0OGDBkCAeWtV7a1QyJYacZ5n37QnTfXfL5YxOxGdMIDPBEwGnNBHov1ITtsn0XWpauFKXDNlMl4n733tlNPPdWJEvIk61sDD+vCxvOMN4FAnZh13oSskC3HJmFzLjjFiqQjmf/FX/yFHXLoIU7mnBM313Ti/rcvnog0MmTIMBm02juZC149YLZ+kM2CxB+82eHky7QDJARVBjIGORExexjnGmjGVTtwz2lW1rEkD61w4FiYEhkzdVIoF+3fPv+vNnPmjFBySNM1XGm/OjZzBnHqEAuDZfhSIFX/cdS1YFcG83wROhCv+3cC14EVFbK94mUvt49/7GNW0PVCLu+mSeoxgTFBPMqnp5eQvOJoFT5AAF/iwm2MjgSXcfs4yLP5SMxYyhvW8UNNDl4cz9/W4bXh9RbaIiLmq7VYWkOob2/hUGd+Nja8tdWm/nUYeUplzcOMFy7CB2ei0NGTStLbIqg4CbfuyxKHraczVRA/UgQmIofAQ00wzJZATDn6MDGr3rYkz8NQv6PO1Fbp2sLWSuixEHlhpAx77hKzOWi1WH8x3yPTDwpe2hFp7C1UbMlGNONOq+Y6YQar5is2VBywuvg4l+OOnBYqSBPmhQ8pkypqe6Ni89tz1lMippKvepsspkTGlAjC3W23ub57W6U65K5UBg/zINJmoWNniPD6TFySyvFN6eUv7+6hUqlQ4vH5Yl1vK5d9bR8+zjzjDPv3f//34WVxOhI+ru5wsxWQVGz0qHm3gtjgER5Hkv7oaxFJLpu2dIVEwdmWoB6UnRYR8uVZGiP7Y5doYvCOJYTqCfbhu53xwPUkb/KUrlrqrJV8hTQSvy3UR/juHbGH9gStpDNVQGQk5/ltNUH5C+VqoWATRpBlfltDlN9QX1OvrWFZGR0X7tFsjthm6XxvlhscUo60dm+9aLfds9znixs5PqLMpASkK5KkOdA8GaCkCRN/nZdBpD0Xq322ePce61QcxaasTg5TImPKgyZK+i9/2cvsXz/3OV8zDJn6548kVK4dJ6CivG4pF5WNSexhb4vwgI6XQNCGAaSOO5XL+uLBoUGfonjr295q3/7Ot/0hInG4b0ZQKkxxeSN6YltHJAQfPKaAOHXi7TFG0rHsbvCDSTy2JvKtgfr0+p0EQhuFQTBiW+ULxHzx3zsM8pMkkE4zwv0k9lgkr2OO/n/riO26eexjw/175MilLK0GnAJIwvuBkgvFay1Rb+vkF+tlqtlNy85mchSS2AwkHfqs8sH/VLBxgrSEzdLfClx2FcTDKeHx0iZWDD2ftRIbRby33HO/VZg+ZWZCXILUFBQPdwl8cJTicZclkpJWXNK1nLU1Bm2PnjYnY+60p1LYKbGPdxNl1r/oofM3vuEN9pEPf9h6ZvY4IbNKAnL2izJRWCKanU/OrBUGrIRgVUa4ZQ4vlMS5Zc4XLtxD2vDn7ROf+IdAxB5H0NCJvlgqpgYBXZOjdygupkzMCx0PO4Qc3/RrBTQ2YYJJa9VJGvGYNl4GTEC4owt1MOw6NZCvKMCxbCFZjuMbDsk/gnrVgeRsyoh5ivmjjXAK8eu/5wESDPam8WvuyQ8Y6jrYkwvjIF0X8Rji5Rjtm5vRYXB+IrDZdBmHVL7GMvQx909WZTzPsayTAOFHl98R0yRT0Z42StzJmCA6j0G5MhnEfAz3K0VIZKPTTRmFcJ9NRU7KW7oIEc245b+uIxMQD68ze3zToFXVZ2pqB6LIK+2CG/hNbvWq5Wt8p7NiOfX5kq511EXGs5gvJmLJb5L2ZDAlMo6NFQgzLEG75JJ32tVXX20HHHigu7E0jUrBIDShggO5EjyEK7hGzDn1ilDiHkkOQodczz77bLvmmmvsoosu8rRYp8z1KLy4cQ68oyo+J2blwTt/ygSyD5o3eWoSV4uI/oPhS9ZhiqUZP/Gm0msalcPrTWFCcmQy5GVbIOYp1HOoR58+SedhLEPePW/Bzo56rdfG1jFcV8OxhjobzgMD8og8Nd3DwEpQ+Bq3VhDrARPbK8RJfYxfJ6TlLzAJbGjVSBSF7QlqhTwGmY3aJfUxjhwlhhVMbqd+RAThg7yTl6d0G8Wj1+GodEcblzP8kQ8PNjW5TufDP6mWkhM3TVkdNhH0acKimI0lxDFufvH6/Y+uV/23Wb5atVJlwDpFul1q+26ZabJ36thRG5IZtI5qn3VV+nSt3zoqvbbvgpkeR4N5ZMo9SeRUgZMPLcSCgxgV5729vfbTn/7Md1f75VVXqeMV/bNMaL00VHp+FaKFkImGRoWYq6oUdnXr6uyyl5z/EnvNa15jRx55hBVpmBRiHBxPPvnkJA/kJ6nlLYB9SRlIvv3tb9ucOXM8nuC+5bCkgaHzrFq1ys4991wfdEIZQl7GhtzVYWKdYf7rsst8RcrW0mwVgbgCzj//fFu27DHZth53WDNJGYLfF73oRfbXf/Vut28LUCeUkTT+93//1z72sY9pwIJAtqwPeOeWl1BneX/R6Iv/+f+5jPj1JN6xwDXSu/fee+3iiy+WC3U+Kj35Gd1aohY1k+LUNUj5iiuusNmzZydXtw/S7cZ3IDlP962gN5HTzWULPyzv7O/vt49//ON2+unsE771Nh8L1BkGheqDH/yg8hHcm/Hpmk6CPQ25xX48d+5s+973vqscBxmfKCg74cjHpz/9afvud7/r7RDzhjhvXgsgyBcyTPh99tnHvvbVr3lbxviYfuDBLNoveSYePmX8rRuX2lUPr7J1pW6rNopW1OUimq6/8FGTxiyF0NivQnEV5FbNOTHPy622t/3ZMbZAvjqrkpe8rrlsTrzcUybjtBCBeB61ZTrb7XfcaV/4whfsj3/8oy1dutQ2btxo/X39PjfsDy0Io7zzJh3hFi5caHPnzLXzX/pSu+BVr7K29rCcWtzsfqlYTEwrNpJrFgJxtlIVdMPQeEGbIE4Qj+Mhphf9hTjCYAJ0yTE6Fp4BhOmU0LGq0uwhlabWlopzsoh5I08c+c5gKzH68wl+yKvO0bj4wOy2RDpfdK5mWbcggbHOuB0nf36HJfcYnri2VmcxTdpoNMYKGeohxMvdF+2DXG5PkMdYDtIGUZ63hjRpj5bliSCGi/Fx7ncIsX2Icqy2knvV+0BImz7q2iyXJpGPiOF2G66HGB/ZGFts2FiMqc6kHvQLCwJ0xctHKGmw5NN9B/mCklfmO6wX/+4jGEJioGTOWUdMdNIlPTBSMUMX6Cksa7N6VZ4mJytTJuPR2Cw6GtVzHiqX0XtgYMBf3ti4YaM9suQRf9V5wYIFNm+33aytrd3a22U62kcKo8cLCQ+n0WyY5Jwjbq0KAPmZrPCmwwLCJ9YmRkfJZUQAAQH8n0zarYD8gRF1uAWE26skZ6kybSuMrKfW4x9RZ5Osq5heqPGRGC+62L5ge7VRGjGPHCcqk5Cnk6Yw1byOzkeriPLDdEFUhaaSj9Fliohxutuo+DnDJ3lAXsZOn36RtKv/x79cGkPWmy/7VaiUlCFg/Ph6YncZRnDXfwVmG82cFEuW1/qFCdRbGtuFjDHpihhRgUL6PG2P5xg6Q7TH6xHRLY0YNh3n1hDjxH+687WCmL+I0WmPlQ9S8/FYf1zBT+x4YLT/ySKWZSLxoim4vyQM2Fb5ATEvEa3GTb5CZSUHnbdatrQf7NuyPNsDMY9Tyeu2CMsRTCQvTsZJG0VsizKMtkeMF/do2ZfHEXkip5GMI/CpYL5umCusoOBzHqyq4JpvrNnQiSLiPIlZfqUFM5Xh0xm4MwgE+2RA2tsMsQJiZVBhGEa50RhdydgJN9ot2gHn0W08bO16Gmm/IxpwK8Af/iNiPFvNG/+URLxtGl1P2wIxb6MHs60Bb+kpoG2Vn4h0vOl6Hs8e4fmQM7mJZeMY42oFsS7Gin884Hci/qeKWKb0sRWMzmerdTIWCJuWm5gXsLX8KERzbjaGmSzS4WM+on1r8UfZB2P7G8NN0fvMoeD6L+nlJWuyKnVcAtC40fy5HN05EKUMex6HlCeHba4ZZ8iQIUOGiWObasYZMmTIkGFyyMg4Q4YMGXYCZGScIUOGDDsBMjLOkCFDhp0AGRlnyJAhw06AjIwzZMiQYSdARsYZMmTIsBMgI+MMGTJk2AmQkXGGDBky7ATIyDhDhgwZdgJkZJwhQ4YMOwEyMs6QIUOGnQAZGWfIkCHDToCMjDNkyJBhJ0BGxhkyZMiwEyAj4wwZMmTY4TD7/wEnfpbx2kPPfgAAAABJRU5ErkJggg==;" parent="Oy8PkqGYpKi4nK7S3hei-1" vertex="1">
          <mxGeometry x="25.340000000000003" y="30" width="83.49" height="38.1" as="geometry" />
        </mxCell>
        <mxCell id="Oy8PkqGYpKi4nK7S3hei-3" value="Commerce" style="swimlane;fillColor=#fad7ac;strokeColor=#b46504;" parent="1" vertex="1">
          <mxGeometry x="80" y="242.75" width="140" height="70" as="geometry" />
        </mxCell>
        <mxCell id="Oy8PkqGYpKi4nK7S3hei-4" value="" style="shape=image;verticalLabelPosition=bottom;labelBackgroundColor=default;verticalAlign=top;aspect=fixed;imageAspect=0;image=data:image/png,iVBORw0KGgoAAAANSUhEUgAAAfIAAAB1CAYAAAC1U2MEAAAAAXNSR0IArs4c6QAAAARnQU1BAACxjwv8YQUAAAAJcEhZcwAAFiUAABYlAUlSJPAAAEGZSURBVHhe7Z0HnFRF0sCLnESiIklRQBAJEkQFQYnmnHPG0zPc6Xmnp37nnd75M0dQgoCKIJIlB0mSc46Sc5IMEv36X7uDb9++mZ3ZmVlYqP/5jt23M/36darq6urqHL87xDAMwzCMbEnO1H8NwzAMw8iGmCA3DMMwjGyMCXLDMAzDyMaYIDcMwzCMbIwJcsMwDMPIxpggN7Ic2yhhGIaROGz7mZEl0MwOHz4iW7dslS2bt0rx4kWlTLkykjOn6ZKGYRjxYILcSDpHjx6V3bt2y4wZc6R7t94yZ/Zcuah2TXnrf69LMSfQc+TIkfpJwzAMI1ZsOmQkDXTEgwcPydo166RP7wHy2SdfyqyZc+TIkaOyceNm2b1nj5nZDcMw4sQEuZEUEND79/8ms2fOlc4du7qZeC9Zt3aDzs6BObjNww3DMOLHBLmRcBDW27b9KqNGjpWOX30rI4aNcr9vPzb7NiFuGIaROEyQGwkDQX3k8BFZvWqNroUzE589e578duBA6icMwzCMRGOC3EgIKsSPHJEZM2ZL68/aS78+A1WgHz50OPUThmEYRjIwQW7EDUJ8167d0tcJ748+aC0Txk+RHTt2HjOlG4ZhGMnDBLmRaRDUXOvWrpfPPm4r7b7oJMt+WSGHDh1K/YRhGIaRbEyQG5kCAY7AnjxpmvzvzQ9kyOARNgs3DMM4DpggN2IGr/Tt23dIn14D5P13P5UZM2fLwYMHU/9qGIZhZCUmyI2oYbZ94MBBNZ93bP+tdOzwraxZvVaOHknZG24YhmFkPSbIjagIhVmdMG6StPm8g/T/cbDOys2SbhiGcXwxQW5kCNvKNqzfKAP6D5Ev23wlEydO0ahthmEYxvHHBLkRlpBD29zZ86Vzp67ydedusnLlajOlG4ZhnECYIDcCQYjv3LlLhg0ZKV+0/kqGDBou2381U7phGMaJhglyIx0pYVbXSrfveqpD26xZc9XJzTAMwzjxMEFuHINZONvIpkyZLq0/by99evWXtWvX633DMAzjxMQEuaHglY4pfdCAYfJlm44yYfxkC/BiGIaRDTBBbqgQX79ug3Tq0EXafdlZlixeKgfNlG4YhpEtMEF+ChPySp83Z4F88P7n0uOHvrJ16zY5Yl7phmEY2QYT5KcoIVP64IHD5b9vfSATx0+Rw4ftyFHDMIzshgnyU43fRWfha9esk44dusinH38pK5evVMFuGIZhZD9MkJ9C/H70d9nlZuGcWPbhB62lV4++snv3HmS7YRiGkU0xQX6KQJjV9es3yI8/DpbPPmkrkydOczPzw+aVbhiGkc0xQX6Sg6Dev3+/zJk9X7p82126dvlBVq5YrYLdMAzDyP6YID+JQYjj0DZ65M/yVftvZMigEbJt23abhRuGYZxEmCA/CUFQM+Neu2a99OjeRw88mTljjuzdu8+EuGEYxkmGCfKTDAT14cNHZP7chdLui47Sq8ePakrHU90wDMM4+TBBfhKhM3EnxEeOGCNv//dDGT16nGzfbqZ0wzCMkxkT5CcBCGqubVt/1cNOPnjvM1m+fKWeWGYy3DAM4+TGBHk2J8WUfljmz1skb/77XenapYcddmIYhnEKYYI8G4ND2/Zfd8jggSPkrf+8K1MmTzMBbhiGcYphgjwbgrDGbL7slxXy7TffS7u2nWTF8lV22IlhGMYpiAnybAZCfPeu3TJtygzdG96nV3/ZvGmLzcQNwzBOUUyQZyMwpW/csEkGDhgq7dt9LePHTZZ9+/an/tUwDMM4FTFBng1gto1D26KFS6TLN92l63c93c+L5eDBg6mfMAzDME5VTJCf4CDE9+3dL2NGjZO2X3R0s/Fhako/etRM6YZhGIYJ8hMahDh7wznspPXnHWTatFmyb5+FWTUMwzD+wAT5CQiCmpCqc+fMl48/bCO9evSTtWvWyeFDh1M/YRiGYRgpmCA/wUCIHzhwQH4aPlree/dTGTXqZw3wYhiGYRhBmCA/gUCIb9m8RTp26CKfftJWliz6RQ4dtMNODMMwjPCYID8BQID/9ttvMmf2PPn80/bSo3tf2bplm62FG4ZhGBligvw4o2FWt++QMaPHy8cftJFhQ3+SvXv3pv7VMAzDMCJjgvw4wWz76NGjelZ49269pc1n7WXhwsW2rcwwDMOICRPkx4m9e/fJjGmzpEP7b+T7rj1lw4ZNJsQNwzCMmDFBnsVgSt+0abMMGjBMPv7oCxkzepzs3/9b6l8NwzAMIzZMkGcRmNLZG06Y1c4du2qo1SWLf7G94YZhGEZcmCDPAhDie3bvkbFjJkiHdt/IkEHDdVZuJB7KOtx1vDiR8mIY2Y2UPpP6SyrWj9KSwxWGlUYSoXi3bN4qA/sPkaFDR8ratevl4IH4DzvJkSNH6r/6zzF+P+oaeOrPCcc9K4f7H+/E873PphXx5Bw83P0hUrPK6f5erlwZ+fDTt6Vc+bKSM2d8+qT3Wfpz6q+hkiDP+p8nw96fk0FQnrR8siAvkco+xPF4JkTz3Oyef4g2vXhIVFlGS6LLPBLefOMUHEQoP/5/YyEr6ilEMsvPBHkSoQGuWb1WevfqLxPGT5Zft22Xffv3y9EjKQ0zs0WfJ08eKViogBOI6QXgkaNHdPafEMc52p1LhgaYO3cuKVa8mJQoUVxKliwhxd3PhU4rqHlhyWDPnr2yZcs23f++dcsW2bVrt+Yh6B0TJchJmwu/A8oWK8eG9Rtl0+Ytrgz2ar5y5colhQufJmeeeYaULVdaSpc+y71HUb0PiexcoXelfnfs3KlHznJt3rJVdu3crcF9ChTML6efXljKlCUvpeQMl6/TTiuk34N483PgtwOyc+cuzUtQUmQxb968UrRYkYS9O8+ivn/b/1vgM0MULVpU8ubLm/pbMFqXv253Cmnw4E3+qTvynzt37tS78UH+OZgo5RyD4OdCwYIFXb8rGLG9khaOrPvcFa4O4oUyKFiwgJzm2nWkOuT5u3ftkf1uzIknHzncOJMvX76UMce9e+iZiew7QH6B/kN7Wrduvax24+faNetl69Zteu+w69P58tGHXJ8udaZUOPdsOffcc6SU+zl//nwuU7Hli4kP238ZKxL8OgpvxDjNGJS/QP6Um0nABHkSoWh3bN8p651w4RjSgwcP6CEoy5evkunTZsnyZSv0PPFYqgDh2aJFE7nqmuYqRP0cdMLivXc+lhXuGfGSJ09uFd51614kl1xaV849r4IKcgRPbvc3PwgqOhvCdO7cBTJ+3CT5ZelyHdi87xivICetlM6+S+bOWSA/j50gixctVUVizx6UmPSDMYM/A/FZTnjWqFFNWlzVVM4/v6Lko/M74hmUyA8XguyXX1bImDHjZc7MebJx40bZvdsNPoePuL/rJ93FSOOEqas7FIoKbhC67LL6Wr5nnVVK8uTNk+m84G8xZcp0afdFZ1cGR1Lv+nBpn3FGSXniyYekStXKcb038N7U98cffqHvq68YhHvMo489IFc0uTzsM0lrzep18ta/39UASeHIX6CA3PfAndKg4SXaRuOBZ+5wA/m3X3eXmTPnyBHXT4PI4droFVc2lJtvuV6KlyiWejc99Pcfuvd2bX9yWGUkLig6V8ZVqp4vL/3jubDtJdQe33n7Yx1n4oF3z58/vyqe1S6sKnXr1ZayZc9SpYxnx9uGgPzSfleuXKNhqadNmaGCfLcbT1Du3J+P9WueRp54bl73/meWOkOqV68mTZs3lho1L9TxKZoxhWdyhsV773yqbSBZUHaMN3fcdXPqncRjgjwLCBUxDS/0MzOn6dNnyQ/f95YZM2bLwQOHjv0tEgjSRx67T2659YZ0wlS/7/579umXZOrUGal3Y4M8oiCUP7usNHcKw9XXNJPSZc5K11mDOq8//3TCiROmyo8/DpL5cxeqd37IvFw+k4KcTr1zxy6ZNHGq9O07UBbOX6yx6b1lG4nQ59CQm7e4Um69/UanoJyj7xz0ThlBWigwixYtcQN4Hxk3dqJaXagHUouUI32e+z6DUrnyZeSaa1vKVVc3cwL9TMmVO1fM+SEfP/00Rt584x1VHsJRwM0M7rrndnn08ft0dp6Z94ZQef/Yb5C889+PdKANel9N3f3fy/98QW665bqwz+P7S5cslycefcbVafjlJ77epGlj+ccrf5EiReOzLPAOUybPkA/f+8wJkdWpd9OTM2cOuf6Gq+XxVg9JKVc/QZAWSs3nn7aTkT+NPVY+iYbXPb9KZfmy3UdSwM3Mg96fZ2MFeurJv8oyp1zGi/ddTi9S2Ck1l8utt93glOFKOg7F04bo06ucAO/ff7AMHjhctv8au1Dl+VgpLm/cQO6+9zapVOncDNs2z164YIm88Jd/umduT72beBDktPsX/vbn1DuJJ3M2TSMmaEz+BoWZhRnF6//6hzz2xINSymmVOdxgEQ2hPhVKN3SpQExNIjPditlNeSdY77nvdnnr7dflwYfuVhNwKO/eZwXh/3vh0wtL85ZXymuvvyQPPXKvVKhQXnLnSlE+Yp2r0On27tkr06bOlPff/Uw+fP9zmTNrrgrx0N+jIfS53bv3SP8fh8h//vWODHD/Yl4LmsmHg3QwxzGD7ND+a3npxddlxLBRamEJSbOMckQafIbnrl61Vjp3/E7eeP1/Kow5KCfadwqHph9woUTOnjVHtmzelvrJzJJDy3/EsNFyxL3D0YBncaXcT/1KlASlc+w6+ruGM44keKOBtFB+KIttW1NCIoe7MqxMDynfcUqNL43EXakPigY+m+77sV9eMNfTZ1575U3p7iYiLGtRJ7FCu9+8eYv07TVAXn35P9K9a+9MCXEgj1j+RgwbqX0ahSC0xJQhSa0r93yuJGOCPIvxCjr+LVGyuNx2+01y3wN36TrP8YB8sPZXp+5F8tSfH5eHHr5XzjuvwjFN25vnaAl9B5M25uy7771dnn72CalZ60I1h0G0zZvOwLrpsKEj9VjXUSPHqAk/Xj8Aljt++WW5dPqqi/Ts3lc2bdwctTBHgGHWJz/dvuupA1C8+dE05y6Qj95vLV27/ODys+WYP0UiQehiUpznnhWL8pKe32XB/MW6pVIHrAQSqb3xpK1bf5Upk6bH/dw1rhwWLlgse7GiGFERElAsGX77zffyfbdesmXL1pjaEn2P5b+OHb6TL9p8JcuXr9SZebwccf1l5YpV8tmnbaXnD31VIY6vjWcPTJAfZxiwWNNp0qyRNG3WWNdxsxKej5m50RUNpNWfHpbGVzbQdfiQIE4EpIM5t1Ej94wnH5FaF9XQ2X80qTNgMFse8ONQjYLHeh+dNQiymyd3bjVl8U6YXdXJxP2OQhH0OqS/efNW6dN7gF7sMIgoHNyfWL/FMtD2i04yedK0sGZg3hsnQdbhqeOiLj9FipyuJkCUmaAlBZ6N0vJ9117Svl1nWeEGpWQMRFgkZs2aq06BEd83DHyH3RdjRo1Tv4SshufjQLozDssFa7IoIZh1k6EwBUGboN7ju1Ktb3ESTV4ijQGUO2vLAwcMddcw2RXlDBhL1tIly+Sbzt30bAnaYhA8mn6LE1uxYkXVhwTfGiY89GsdQwLyRx6wGnTt0kN6dO+jfguZbSOhso7nwtJKOskk1xuO1J+N4wSNEa/QfHnzqmaKdhuu4SEELqpdUy6oVkUbuR++h1lp/foNqXciQ3o48dz/wF1yfpVK6gmcUecNgYDhSrmX8p1I36VB45hSvnw5FZh16taS051gi/QdTNX9+gxUByK+EwRfR1Cy1o2ScPHFdaT+pfWk3sUXSY3q1dSzlYGAvJJekGBEOG/cuEnTOfvsclofQfk6eOigzJo5VweJuXPm66Dkh6+xdlnepVOjZjWXj9py6aUXS/1L6rq6qyGVK1eUMm5AKliggPv+YVUE/PXN7ATTMc5yeOWiAEQqJ0AYIfjHjh7v3jHywHX096O6Dl+laiWtk4zSDmLtuvXydaeuUZlDSb9R48uk6gXnh30WZYCZtn+/QVHNzqhL2uw5FcrrgBkr5Hvo4BEyc8acDJ+HgybPwmpFGwkHO0amTJ6u9eCH5TQcLM8+p7z6nWT6Kn2WXHBBVbn0sotTFdTg8qRdDew/NN36Lx+nPVWsdK629cBnpF4lSxTXfB85fETbahC/6U6JnervgqCNVBf0PWbMKKrE1WC5LAiENJa86q7/0HcaNrpUlyLp17Uuqi6VKp+nToe8+37XDpjh+8HxF/+AIkUK6+eDnIPZZTN0yIh00TUZq9idU7HSeeq/ElQ20V6US+06taRq1cqpqScec3bLBBQZ6zF0EMyUkaCh5cuXVwqfdtoxx5SgjqeDmEuPiG+9evwY1msXZ7eHH71PHU3wWPVDR3n2qZfcjHFGhqZrBoH6l9aVPz31aMQBFsgfMzC2gRAXHqGKJo0gQwEpUqyIlC1bRsqUPUtOL1xYcuYK35lJC7MuAr1I0fACivVLzOmtP2+vHS4ILBgII4QkHrU46RUrVkwtAAwoCDe2FbEFjEh6eMNOcrNozn33t3y0ZrzI//T0o9KgwSXptkpRtsuXrdS1bE6rC63Pe2GwQLCQH5SKc50SUaJECd26E1K8KMfQ9ppFC5dqXc2ZPT9wXZwlj6uvaS4PPnyPeg1HqiO/s5s/LT8MhA88eLfcfudNqrjEAmXRr+8g+ej9z3Ugzwjy/cqrsTm7ZZR/kmna7Ap5/Y1/aH1HKhs/PAuFDMc02mJG5HJt6fobo3N2++yTtjLS1YM3++SNdvHnZ56QkmeWVMUgHvA/KevxX/FDXtTZrRXObsvTjAW5XTus65RLHD2Z3YbLCmlQD79uY6fNSpk6eYYsWrxUveH9YPW67vqWOjbpEmFAmqRHv+vxQz/XdgbqTNkP78Ouijr1akn9+nWFnRW0e/r5Hz5EOXR3AX36l6XL1Co2acJUNfX7FTLSO88p+M/+9SmnENRLo2SQH3V2e/5lN/amVUaxAlzRpJFcf8NVbvZfOGwZZQTlnitnLvdOJSLudogXm5FnAgbMqVNnSpdvv5efx06UieOnyMQJwRfe1TOnz9Y1SWa/mFeDZtI0OMytCCxmeuo0FUCiZuQ8r0yZ0vLkU49IjRoXBqYFpMe1etUap7n+JAP6D5ERw0fLuJ8n6sxj5ozZMnPWXJk9a546IGGmdN+QEk6bDTJ9kRbQqEPCNgjtZAsXyxdtOsq61etS76YFpeaa65rLnXffKo2vaCgVKpyt5Us5hp5L50cgc/+cc86WqtXO1wGQ/d3M/ryQNczEDCTMBLzCjfzgPENUPpza2DfvB4XtEjdLuv+BO6VZiyulipvBsX0P07r3PZkJI6DZ286siBk6pkIsMZgEQ2UEhw8fUoegQm4gq+xmFXjihiOaGTlph8qGGRbtCQWIve3+ugoHaSAkunfrpVspvfkNB2knekYOfJ6te5RltPkHZnETXL9l62I0Zx3EOyOnHaY4kt6hAv0MJ8xpZ5m9oqmvcDNyrG6076uuairnVawQmL5eLo/soMCCgEDls9Q7Y4u/fvidSU0lN4Mt42ahQf2ayQm7Onr26BeomPM+WJ/wp0Hhw5+GPKh1zJUff0+5XH24iQL1gAWA/sPsmTQ1BoGnPfJ5+gJlj3XMn69wM/L8+fKrItG0+RX6jHjqq2TJ4jqJSybBo6gREYKurHezKTrs5InTVCMMezlNcfSocU4L7aszOfZVhxukEKY4v6FtJxuEzu133Ci1nVKAYAmCDsGsc9TIn+XDD1o7xaW7jB0zXtcVEYTMIJlZMlCgqMx2Ah1B/0Xrr6Rblx5u5r5RZz4hSI/fmbUw02btO0gIcG//vt+kT68BssLNgIPEBFr/nXffop2efeF06nDKCNChEfCYJZs1v1Ke/FOKFSIEs/GSTmtu0bKpm43XlwJuhuGFOmNdb7Qri3AziUaNG8gTbsaGyZOBJaNlCgYVBClmv1tuu0Huvue2dKZJiod1yJ9GjFFHuKDyigbS9CtWmCPxOeC9ohWcQB4wWdKWvfUL1EHQIB4v5Bt/A3/aWIVQKnmXaMuGz21zCsCC+Qs1FoEX0uc5icaJn5T/HZtVHl80F1FkJaXcc6viULNWdXnokfvUauWHMt20cZOsWbNWDgYsN9FO1q3doJMAxg5/XfEcFHGsYddc10IFb7jlrRChvGEhaeYE7n0P3iUoHKHxjLaIYnHvfbdr34ylXWru3KO1ziLk4UTBBHkmoaI1HKprkJEutt4wyOCUg+BnFsC6EH8LAhOVRihKMszCrr62uc4Wgxoq+WP5oEf3vvL5J23VJE0wm3DrZMArYUlgkO/Zs586sxDZjk7MbJHZ04/9Bsv/3npfev7QL12gmBDcYx8815EjaZ9HVosXL6pmzmuvv0rNbuEUkXBgCcC0iFmZdWyiRDVoeKk8+/yT0uqpR6Qmzni+ZQv2rk8YNznF+cyXZ8qPte9HHr9fhXKkWXMQDDCs4bdo2cQJ9Ov1/byEPHFHj/rZzSAycMYLgPyh6BAsI5dvyQMrAOb9IAtDEDwbJ7HJk6epMPTmhYGX9cBixYqk3kkclCkzQyIKetsrz58+dZbEspWO9rh27TpZ6BRSvwKDP0WZMmUC+8TJRYpiEQsIxsrnV5Srrmnm2mz679KGNm3aotsbvVBHTAiw3s2buzCw/TLzf+a5VnKZU6IjWTyCoK4Kue80aFhfbnYz+TJOWcfaeO/9d8grr70ot91xk2s75WKuU/10NmkGJsizCJou5pslS35xDX5fys0A1ETlBu5kwszsppuvlaJOeAQ1bjoa+UDofvv197r2FCnAiB8GShyJhg8dpethmOXHjZso/33zfWnzWTuZMX12WA9X7mGeZAaK4PebiPPmySsNL79Mg3OceUbJmLRsLyhLlza4WJ77y5/kxZeek5dffUFn6igGoe1xISgLFBKEl3+2Qekx+37WDUK6Zc/NEDID9YAl5sabrpP6l9RT73svrENTbrNmzVPHo1hBEF5zXUtda/Syd+9+WbBgkW69C6qPIAiFO2vmHNee0y7/4O9Qt95F6Z6RCGizWF4w73rrnDyvWLla5s6df+z3jEDg4JOAZcj7cdJlzZ1dG0Z6aKMognXq1NLwsH7oJ1iPfgvwHWF3xNixE9WC4q8j+tv9bjZ9qRPi4SYWGcF3ChQooDt/UMjffvcNeezxB3QJkn6V2XEiu2CCPIthRhspnjMNPZwnZyKgj5xT4WxdZw8nxLlmTJstP/YZKDt3RRlUwQff4V0G/DhY/vrcK+qANWH8JNm5c7fOznlyuO6Kt/ZCJ1wOHjyYJo/8TN6bu5lr6TKl4jJTkhaaf+MrGugMA2cU79q6F7xfFy1aqnuO9VAYD0Rlu+b6llKt+gVxDxaap8KF1AkJM783L5Tn+nUbZY4T5Lt27069Gz20OXwDcMDzviLpElYWK0qQ568flLQZM+aoEOTnEFhFznEzZpSZjBxAMwPFTlx6lkP8M7b9+/apsxOWgowgz5vdrJEQyV7rEkXCrLB6jQuiKodTGd3aeXp6J1WGCYS4v/wocyYw8+elXxoiDZS/Jk0axb2kQVoIbcIAV72gshRwCqXfAnWyYoLcBw2Nhkgn9w5UiQDTVPnyZVRzDALz0/p1G3TtOVnkzJlLPapxFAvHtm2/Ss8efVVwIXTjAVP7OvdOKsAz2BIFlD+BVoLKAJM4JuwLqp2fMA2bzk9a/kEpBPnBSQdHPpwc07yB+woz+KZNG+v3w6URKzjJXXJpvdTf/gDFBgdArAP+ATEaaH94FrN844VQuvg3sHQSKV3+hsPfvDnznYKXVpko6OqGLTYlShaLqKTFA+bci5wiQpl7yxpr0eJFS2SRK5uMyoV+jdLCUoX7cOpdl1/Sdm2rXLmycXuUn+wwPoZTdnLmSL8djjKfMmWG+r34QSljmaxo8WDrYKyE+mHKlXrzFMAEuYfQoE2kp3lz56tnayTSelKGvxAUOJexTYo1oMKnpz+1iGdvWL9JHcn8a0yJgiciDOvUSXFw8+cBdMY1fbbToJe5DsiJQFnXGygDvLaXu4E2aPsd68i169bS2UBWQZ5YBli6dJn+7MXVrjoAlStXOvVO/FDeeNk3adZYBa8fHIYI5xq0fz0jSJt1cszT3nolLZQnTpryrxn7YZmEsvC2UdJieeGyBhe7WVX6LZGJI4fGCsChybs1kHphrX/K1JkpypavnkJwn62I06fNVIUk9ClKolChQho/HOfDpBNZ1zjh2bhxc+BWSdpBgYL5dBkkBJ/Zs3u3LJy/SJ2E/bBPu0b1CzO9JJVM9O3c/4VrTycSJshTQYCxrsvWnTafd9BtEkFrPYBgLlG8mFQ871wdFCNdbC/CsezKJo009GktN/AHBSZgvZFZEQNqskx7NEeEYYVz064zemF9mu1vyTwNKBIMEOxV96/JozSxBQRnGx15swjaBWfIq6e677kMPsziCJjhFYyJoGrV89Vhx8/evXvVMzico2BGsA0Pr3p/fnlHTpCLtCecJYb58xapwul9Nm0JB0G8jpMtpNjTSyChwj7zOuUxz/Ud2k4kNm3YJLNnz0tbdq4sWEulbYXrF/HC8+jXHG9KX8dSldmL78drKcsMvAMKNqcaBrUTxjUsfX5n3e2u7+CDgeLrBUW1evULpOBpBTPVlpMJ+SHeQ0p5/5auDqK9mAxSVom27voxQe6gg7H/uU/v/vJV+281UMQBN2iFgwZbp95F8ufnWqmzVKTr+b8+pafe/OWFpzQMqn8/oTYYTKYLlujhEzgSJatJM3gTaSicMw95wazOQSDhlJhE8bvLS9B77tixQ4W5f6Di2E88zPFazkoYXxj82ZPrXx9nrZAZYjJmE7q/u3rVdAIXYcr6dGb9KLDEECmL/a1eGKCxxPj34YbgHoPxAjez8odkpRwaN24gefDWT6w+kw7KQ60g5dOemofit2rlavXADzdoMjBPmzZLI/h5wUpVv34dVXKSBeWH1YBQpjiR/th3UKYvDizB6z6onmIjxR8mGvgcSgi7bpjk+L9HMyVaHNs7vfEXqC927CDM/d+h3PEmp2/72/nxBisVJxoOHjhM4xoE1UNUl6vrkSNGp4tZkWhOeUHOujSOL+zx7t6tt6xatSZD7Uln5E7zrF2nps5uIl2sR1/otM7i7vNooP4Gi3ZN3O7vu/aUOW4mHH/nDA9pl3QDeFjB4x7NYRQM5pE0ft6B98dxirVcvKxjuS52ZVKzZjXV3L3lQf527Nilmqy/HPC6LutmqHT6LMXlg21WBGbx5oh8Y04+PcDpJxFwYA0Rqfxp0zapo92ZjJFOemXLl1EHI/+2PSLfcZBF0A4FlF2iaBElzP93ttxdcGEVl7ZLP/VeMsER8BKnjCAIvBCXAO/1oK10lBVLJMRn9y9dIXywmmFZSSYoyd936yntvuwU10WMfwIwZRZaDeVx5EhKXAf6eriLpRYUoLVr1suQwT/pOMkWMz85cuRUocwec6/FkefQf/xREGmHLGcQMCloCel4E1pu+rpzVy3voHqI5mr7RUc96159MpLIKSvI2QPOOtkgpyFT2GmOjnRXRgMSDTHWywvPIdRh7579pUPbr4Vzu4PWhRMNgR0imQ+J3ITmHQk6Kvuwn3jyId37+ezzsV185/4H73YzoLQOLtQJzz7khKYfhE6x4kWztNPrYHf0iOxw7SRo7ZhzmZOhWFAm1BGz5iCvW3YDoABqW80EhNC95LJ6GjbYC4JwhlNqaZf+tBGO891sfH2AWR3Pf5ZsskSMu0fQ/liPR5HyggmU5QF1BvQ5VpJn/D5STmpLvekg/1g+yp1dNultC2dPHL4oy8xeLK3wL+Za3ikzbeCoa9P4QxDVjnPTGfsCrxFjZMigEfJdlx7yZZuv9KSzcAGtsMqgHLIP3z++YMHx55Pf2WpWqFDBiOGcjye6FOImFf46iPXau2+fWtKSySkpyNmHu2zZCunQ7ms99IF1P7TOrAZtmBjGWAEy47wUK8jMfGG2WIXAzJ/RGj3OLIRhrFKlsq4rEroy1gv/ARwAvbhhSZ8dNDjhSayafhbICi8IBOomaLjESpDMQQjzepDSxYwSp67ATEUBwW6oO+rAC2U/edJUjYfthfogGhdOoAc8yibtiC1bWJ6C8pkseO6551aQC2tckKY90J9YIlu0YEma/kT+6fNEJWRg9YJyiKk+mWb1RELX4P0j9eGMIE4F1pWu3/WQtm066kQm3eXuf+n+bde2s3z37Q8a3TEoNCuwbZNtexxqgkD3oxacgOyiODGWuLdJvXOyksmOGgOnlCCnQyOoJrnB6vNP2+paEweABAmOZENHxJRHdDHCHnLgyImADhARBgn+oheDSZRe++GusARUR9bX0PEHwRTUNJnZRYpFkBGUPfGfcRrzB79hq+CMmXPS9AkUB7ZssQYdusvf2Q6GEMc0ndXkL5BPHUj9FhF8LObNWyhbt/2aeieFdU4ITZ8+K027I/8VK6bEuo81Gl9m8I8zx/pSjFc8dR+CGT0+D8zM2QWR7nL3sWzgj0EYW1XuA9oiFiPM6Tffcr069kbs1z5+x6xPG88GvdtfB7FcWcEpI8jpRKxR/fB9H2n9aXuZNnVWpj1/Q/DdWC4/zGI4QOGmW66VVk89LBUrn5f6l+RAFnBiC8pLCGbJ3u0jGRFLx80IJ951tkiQFT/MjHXpIYv7PHWkXukBXRJTrs42EpynUHth9ogZ1A/LDMQDiGeUwOmSdeGzfEIYRZedG+xeCOWDPePz5i1Q03sI6h0PcrbJsRUske0gWvB4ruSEsPfZ1MfixUs1Rj+z8NA7EB45JZLbH5XFfnq243FMZVZYFMhnaBbKhR9EZi6Ujjx5wh9fmlXga3Nh9Wp6vgDHi4ZThtSXwddHyDt1FVoiOBEhj7xjPHXFlVJfyd1ed0oIcsxBK1eslg7tvpFvvu6mZnUGrHhAQ2WgJQZ3pAsHG9Z9iTqF9umHAYR168sbXSZ33HmznuKULGiY+AUEmccUNy5wPni4gDVAl0tat3PPJ2ay11kmBOWNIqYzgyyC8sJ0Xqxo8Il1+FSkmN0TXyI4GuHlHFRXBF/Jlz++GSRlzElT1fQUvbTDAJ7pLPkAgyxm9Zkz5qpJNgQi5PyqlXTb1vGCdfkrm16eLv/kF2HOnnFg2eynYaNUcHg566xSThBVjTm2d2Y588ySeijIq6/9TV77v5cyfb36+kty6WX1tX1yZSU8DksGiiBnHbz0j+ekoRu7/I6rXoqXwLclvaghIh9xI4LGxeMNgvfi+nXkry8+HVgH0V9/l+f/+rRUqfrHAU3J4KQW5DQQZk14hb/3zifSr0/KGbjxaoB4YA53A8MTjz4r9939WAbX4/Lwg0/Ja6++pd9BkPqfTwfA6ePyRpfKlU0uT7N9I9Fs3rQ1rDAkH4QqZb+236M5He4deI+MrlhAqSnuBmf2CPsHBZxF8JwNOlkp2bDlza9R8256bOL24O1a8UIdLV68zP2UthwoFpStQgXTl1Gs4ExHqN7TPE5vvArOdMOHjdb3wqmO4Ehr16SNJsdM48orLk/nOZ5V8O4oWS1bNtUzA7xgaSOWOooQeZ45a44sXbo8Tf5RzCpVPle3D2bJbNwJPxSH6264SkP6Xn1ti0xfLa9uGvZM9Gih6fDenLMeuvidi78FtWkEOCGS77r7Nmn9xfvyj5efl/PPr+RmrZGtA8WLF1cF3fsJ0t/tJkJst40mtG5WQj7z5c0nF1xQxZV1s8A6iP5qruM6jrHJ5KQV5MxoCA7BXr733/1U98iGnYnGCAoCszHW1xnMI12bN29VB5xRP42Vj95vrceZBikTdAS8cNnOVaZs4iKFeeGZG9ZvkD1OCw4H2+TOdZ3Vf4ynF6wZK1etcQP8Ap29BV7zFul2Jq85NhpwOgryTj906KCsXr3GzbY2pt7JGhjYWAPWrUm+sWr//n3qJZ0MKwEKH+XobyeUS+nSpaSwGxjiFUAsY1StmuKwyCAdgmdOHD9Z11AJkjR58vQ0s1naavmzy6uzGfmJV6GIB46zbdjwknRlsXRJylY6rGFjR6c/c5zZPGbhEiXSer4ni9DSTKg+KbN4rnjg+2xDxTmt5TXNjl2cOdDiqiZ6ypy3PQDfYYJxw43XyJNPPaLLMihzKCgZwRJMqTOd4uHLN9YsdhHsi2MHRjIgJ5obT3a9ZZ+ZK9mclIKc4B0453TuyB7AjipIk2K+cY0vVOnhLi/b3eytT8/+2niDlAoqnBlCxYoV0gmyRIECwgEG4coDy0CNWheqQA/XAImdjAfwv15/W/72wuvB14uvyxvu7+N/nhRTJ0WQMzgzSHghCWKBs8MgUQpZNCAgypYrnRJAxfcamJpnzpijM9hEDkT4A8yaNdcpgltT7/wB67qly5ROSChR6rd02bPUPO7fQ73FKcHjx03W7UZLFv2S5v0wkxJDAQUnKwapcPBsBEnjKxuqt7Q3J8QjILATh90QJ9/b3hFSvDfxHbLiyGAvx7O8QjC2sFXsxZeekTf+84r8+81/6sXP//r3y3pqWJEiab34qX/Ws4nqxuREyz7Kdyla9HSpEBATgTSJIrlu7frkjM9xQm5jec/jyUklyEMz5XE/T5QPP2yts3HMbCcKjIUI8wULF6sw9EODYb2c6GvJCk7BbJroVuHiuZMHHIA4nCLSIIcjEev/v277Nfz163bdQxktPJsjMJkhBgkqDl5BcHJ6VSIFZ0ZwZCMhU/2HaZAHlLJflixPvRM/pIliMGbU+NQ7aeGo0PJnl02YSRsByDr5GSXTRnpjXZnzz38eOzGdVYX9/5dcUlcjBB7vQY7nVz6/khB//XdPVpjtEYp1+NCRsmFDWie3fPnyywWuPvEROBWhzDClh3adhND7CPmLa8sV7AjwOa9RhixZDBk0XJcXo+mDpJnPKZ+1a9dMt90UCBYzeuTPCR2nNV9ZNzycEJw0ghzBwnaJXj36aax0AlsgtKJpbFkJW4c4bYqtF0HkzZdPZ6XJimDGLHKWE4YaCjagbOh4xdxAff2NV0UVe5o0wl3am2ItfjeuYLYrdeYZ6Z598OAB9Z5GmMfrrAgofrtcXWA+DjfL14HI1Un1mhdIwULpQ9tiJcD3Id4dECFIg21Ss2fPTb3zBwy8HBV69tnlEhYWloGbevaHmiUfzJawvHjfizqpdmEV3YOeO1dyPXGjgfqhv7ANzn+GO9G02P+8b+8fhx/x+TPOLKEz0lP13PEU0e2EeOpPXkL9v0XLK7Wt+WEZabAT5PTBaNs7a+g1a12oExQ/KFyjRo3TZTp/EJ/MgC8NcgD/iGQseZ2oZHtBTmMi+g6DX+dOXaVb116ydk0i4hAnBwZOnMlyhjGdY/ZjQPWvUSWSdevWy8TxU8J2HJyIEKa33HaDrpfRuTMDYRszUgSCKF++rJ5yRuQnL1QpHsnDh4/SmbA36Ees0D7wYcABsss338vECVOcUN4WKNBxdGPWd17F9PtkUQawADF7jVe5IC2WgYhvsD0g5jne1dTLmaUSt7OB92GnRPWa1dI55LCuzFq9F5QZHOQIrRkgB44L1A+Cglj8XjAFY6Hzmm1x4uRwF841z2y7PtlhWQvljrMhgjz6iVVPOOstm1OcCTOCcsY5j3DV/rgFgN9Ozx/66sE98Qhz+i5H2X7duZt0+qqLbqOkjzPJO9nJ1oKcRoT5dujgERqlbeSIMWruzTIhHsM4wEdp0Owbr169Wjov6BA0ZDTJo0l8B8z6gwcP10hN4coKsxrHOj7e6gE9pJ910Whfl/GR9yP2Mu8bC5QRywpNm10hpQIEFnmfPXOu9O41QFauXK2dN9b65vMcOjLEtZtu3/WUXr36y5etv9I40tOmzEg5kMSTJMpIuXJlpEHD+oEmbYTFN526ydTJM7TuMtP++A7OZb169tNT8PxbpcgDpuA6dS9K+HYp9oHXqlVDypYtnaHiVa5sGT0PnqWPE0UQkmccROvVq+3aXWRLFk6ctWrX0HjtJsjDg4Naw8svVT8Cv78OzXvWzDkycMBQVZYygnKmvVx2WX0p6/qRH9LjvAuEL5OMzPQfnJtxbuzj+vLIn8bIgP5D5Is2HaX15+01FC1y4WQmWwpyKpoBc8XyldK1Sw/p8m13Nc34PVOTxu85JKebbTLj1F9dfsJdwNoq+y5xKrrrnttSnNkI6BEApiH2Vh46mFyzEI2+t2v0QQeUhEBgNL6ioe6DvPGma1WrxkwWBEMiHZa/c/zmtde1lMcef1AudDPIWAdMBuYqVSpJMyfMgzR4zNjj3Sy4W5ee6ogVEp7h3iNE6DMIak4l6t3zR93ZgGcz25MG9B+qyzL93SAQ2oMM5J+yYEZBHfqFHWmuWrVaOnf6zs3OJwXGKg8Hn0MZwYrUy+Vn5Iix6cKIAr4TnFqGl7l/YI0X3oeoXPgBRNr6yHOrOiFerny5hOchHqgfyocjZfEhCAefQ4DXq1cnzTJClhJluzjeoLjTJpo0bSQlShZPvfsHjLUowvPnL4yqrVPexB1o1LhBoDJMeghgYn0sWoAPUcq58hmlzd/5LA68HDxF/2MpBQVjlVP08ZFo7yZ55BVhHws8OZo8nAhkO0FOoeKIw3ayNp9/pabRdWs3pJvBJJM8eXNLjRrV5G4nlO+8+xZ33Rr2ustdDz5yrx5p+re/PyvNml+heyrDTW85FIH1a29M62SAwoBGjbaK6TFcY8VLmjPUH3/yIXnl1RflvvvvVMcVtsrxN2buOMXh1Y2TzMOP3C8v//MFafWnR6ROvVqB68rRwCzxhpuukZo1qwcqAqxtc6jDZ5+21a19nPuLNSP0Lt734Wfu05EJP/ml09S/+fp73T4Ygs/gmPfLL8vVrH3EY44FBNd551WQFi2aaGAPPzxuwfzF8kXrDtKzRz83u95yzFrgzQscy4+79PjQGbM1TzhnEvTG/3lmmZjUr2hyeabLMyOYMXE0b5EI+12p8+ouH0WLhBeWxwvK6DwneIjjH45cuXPqljOcBbMa1wpSfohRqQ2Hv40kGvocApc+TX8Pcnxbv26jDHLKLz4mGeWH9IoWKSJNmzWWei7NIEWKScWokWPlww/aSP9+Q9T/JNRPuHhG6ArdIwIhDpkc6sIBMIST9eaFcY7dH7EesasfTWARZ1Q+8ZLrDUfqzyc8FAaa29BBw6Xdl53dwLlQf090IVGJmJQuqlMz0HuaGQx7nQkRWbdebbn44jphLxotW3WqXFBZt1XldzOeIMEEvAd7r9EiN/kOrghBflijZGYYNCsijcEDU8zmGYFCtH79Rjnv3HPkrNKl9F5Q3nhfvMlLlymlCgzbfZq3bOKUksZy1dVN5YYbrpbb7rjJ/dzMdfxaOlAygyV/QemRR+6H/g2C+yg8mOYnT5oW6NXKTHyzKyfMcmxLw6+AAR0lIDRQ8AwGCCL74aTTvm1nDdeJZ7gfZiGULRH22Frln3mzdkhwGJZzUo77TGs1YWDBhMfhIsxU8OxlAMznLu92OtbsSAMrElaB77/r5fK/MPAdeSdM3o88dr9uC4w0E1bz4opVujaIU2UIypJBublTQrCqhCtzljQ4unHTxk1pvg+UDevQBLlgjT4oDd4fy8KkiVPTlS+fb9T4sohr09QV5zZz/rPfV4FyrFnzQj2cg5/9afA7dY4ixP57/64QPs2WqvsfuFOPXfXXbQisKXhl403tBasaSkJGSxsIFtoX9ZAGV5zUHQovnyFcbDwX417ooJdw5ck23IEqaNO+C/lgto3DX9AhJyFIl+2o1Avjkt88TR2xrMRYyJp6pLYJlHnRYkWcMlpItwcHxZigT7GuPXfOPD3WOXT2PRZQPO3JC3XEUaoowLo05hRn0gsy85MnFGAmXEHLQTxr6JARWp5pcB9jeYG6pk0G1UG0F4cQYb2N1G7iJYcrmOSqCgkglEWcKwixOmjA8GMVnAyoambTDz92n567HY5Yii5cZ/OCSfWH73tLl2+6B5pXgfw8/Oh9cuttN2hADz8Mps8+9ZJMmzojKoUSwcdWs6f+/JieKZ1RZ4Sg9+b9QvcjvWvoM3QOBgkc2sJ9ns8yyx47doJ8+N5n2nnDlTlpYIY/44wz1CuZARPBxLGRCHs6FMLTL3xD8H1m3M8830pN6OHWWilflnQ6tPtWndz85yyH4I1QKIoVK6YzeIQf73vYCVu25rEXd8uWLTqo+4XmMVwiBCwhAMd117VMCcARoWw5EY3jJ9984x21UHnro7gbbN9+998qjIOEGJ9FwaB/cXk9vYGzo++59za578G79D2CQHgSSOajD1q72dqGNO2PPLzy6gty0y3XhX0HynbpkuXyxKPPqBDy1jVKHdagu+65VQfEoDTIP0L080/bydKlRMVLC+fnf/TJ/zStoO/zPGaXzz/zdz3y1Pt8hMj1N14tj7d6KGxUNT5PO/vsk7ZqJvZ8XeGZtFF/jITMQNSxDz76r7bxcO/CkcRPtfqrniHvzQo7Ylpc1VRa/enhQE9yPzg8choaSsF+n6WQtsR2VayNKDrh6tYLijXK0rdff68TCW85eyEtfG0QqEWc0kK90y8J7UqefnWKQKRlLMYyTrYjVCrx9P1543sLFyyRF55/2Y0N6ZUKvk99xXvCISGvWZokPG+yOOFN6xQ23sDMFF7751vSo3tfNT+fCNAwor0yAhPQnFnzZPSocYEzs2TB+tLMmXOkTesOui0tmi174d7P+3MQf9TlfHn3nU/U6hDpWaRFJ2p4+SXy9DNP6Np7OEWDdA64tHGWYWvMsKEj1VQ9fNhIV65zVZiHE+LMNrEi3Hv/HXoiWKT1UwYuvNcffvQeqV+/Tti99rwVwmjTpk06sxgxfLT0c/kZ2H+IesgzuDLQhhPiOntxg9ejTpm87vqMhXi8kDYe3Tg4YQL1wt+wxuDZHmShOlEg/+dWrKDb4/x1SHlecWXDlGWt44S2Udcm9u7ZF9e13ylZKPoZ9dNEwfn1hCplFu9XAlG+li9boVswWe6KBqxD17o2/fAj96nFLZzfTcp4cUgVcJ5BYJ/p02bKggWLVQHQ5bQwZUB/wXrz2v/9TYV4ZsDiwEw9qA5iuagrlJdkcsIKciqIgmQW3rf3QHnj9f+5ipyr97OqAWcF2lhd52aZgPCthJbM6vdDwM12SsRnbibDunlI6CUqH6SDwoBXNj4N//nXO7Js6XKdtUYDWvgVTRrKi39/Rpcyws3IkJ5BeY70FsyacfJ65NH79SQv1v0zEpj8ne1oTz/3hLR0MxvWjsN9J9YiJBkcznBqe/GlZ1WTRyhllKdEEfKM9w7YzIo47pO941mVj8xyhqsLZmHFSxRLveNwWSasLSFJ9dcT/B0yIt5eGev3iV/AzpWGjS4NNA8jqCaMmyQzp8+OKm465U8/u/q65vLMc610q2nYPu0I7NNhOhZpFC5cSBo3biB/f/kvToin+EMczzrPEW+FRcEJK8iJPLZ40S+6Jeir9t/oHsOwJsgkEHpSooRZECgqmJgnT54mHb/qov96T5jKiETmDUHL2mKHtt/I15266ayWvMUj0PkeM3CCM2DyJFxu+7Zfu7pcp9vrYkmVjk8c+mefb6VOcBXOPVt3AmS2gyKoWKZo0KC+PPHkw9K8xZVqMo42Pb6PKf7pZ5+QBx66W9d+MQFmdv8/30KAE34V5eDFvz+r/6JoxDsIxfJtZjIoNClR21LucUgLsxv8AyLjqdN48uxrGLx/tKlhwalcpaKrm3PU0qL33Pdx5CPUbmbI3JvE8f6JJGw2qKvoeyBtEx8LIuj5Z9D08zWr16nz6Zo1rm+7WXo0kCYWoBdffDblPHOnLEYS6JHgO8z06ZO33XGz/PnZVmpBCP3tuJIFjz/hnN1oBDu275ApU2bId126q1d1uPXiZILzBs5srEOz3ohAi/86pOuYu/fskQ0bNus2C0xSPbr3UY9nv4NPEJhyq13IOcznCdHh/HkjfZy6Nmz8wyM7Fth2hWPLooVLNZwsGjZyHLMl/UGHVP4L0zlwuEIp2LN3r6xbt0FDOg4b8pN6cnMUJqdpkUCR0wvL1dc0VyERTUfjM5jVSxQvLtWqV9XgH5QFswXeWwNJoByQWQ+a59TkEb6EiWTdmuMref4dd9+iIUr1HPQo8uGFz6NgMKNnzbJAwfz6DNowChl5CasEkS+c83Ln0cGLIDh4CN/olJRb77hRo7eRVix54rmrV66RCeOn6HeZyXNRdzyDHRPhHNUgdJ/PUm8ocnny5JVKbkC8+dbrNXBMpPzwfOqc4EzUc+j5XMzqGbQRBOHSoKw4UGjIkBEUj+f7uXQtmPV9tjMGObt5QUBg/Vm1KuWMBd4HZ0EilVEukWACgUBiDTZN/l094bBau06tiOZ5tjIS4x3BRr69aSTuyqXOqddc2yLikgv9kKUlTN7e79MHKlepJHVjiEnAM1B0Kb+FC5don/Omyd8Zp8uXL6NKNveigfRwgKt1UXVdsipYqID7rlMUXFug7kAVjoBuxHex1uGwh4n+kssulltvv1H7NVvm+HukdgI4AuIpzzjnfZ9EXowROE/je5MsThhnN7KBIMNJhiMUcRYh4AeC6XjADOsyN1s7PYJXZ6xQ0gcOHlCHGrY+EUKS2Wo0QRVC0Cjwgq/jBhQVrqn3Q9DBevXsr9GX4gVHtDPPKKnbeio6TZdgDkSlY+0W7ZdOlMN1FoQop5PhCMO7sRyC9zKepCtWund0v7M2GIIZEgFWPvz0bTV9ZTS4+gm1FQZb9oouWbzMtZVVstEpR6ynoYywXHHYfYb9+gxczN4xgTMrq1SpolMGqrg8pMQsz6izRwN5Yj1szdq1aklasWyl7hzYuvVXN8Dt0fc/7AbWnC4/CLUCBQu6cjxdBSsChuMgMV2Tx5AzVKz5okyWLlmmuxZoB14QPjffcp06N2WULgMoW/rY4onyhFLbomUTFaaRQHmhHkb/9LM6ImmDT4V2cvU1zdzMvlrqnfRQhigPxIWg/rzQFuvXryu16xKzO/JBJ+SfXQwc8EE4ZLyqOXrztMKRZ3s8H+cplE4iCHpB6WIbJmMCsffDgf/Oz2Mm6PNDgigZICxRrsI5ZQJlSMQ0lCsvtC+WHy5zgi/W7Yz0uX59BunOBj9Yjxo0uERq1a6uylYsUPawe/duWbt2g/qQoIhtSu3TOIUeZFLhypTxgmcxDhE0CqUeRzvCDHOqHW02mr7DM9nlwM6RnTuSFzCG9lq3fm09pS9ZnBCCnCzg/Ytpd5AbhCaMmxy4nzYroTEgNEPmuUSBloxTFsIvs+9H59XZaEBjZflh3769+m8ioTHSSRA+eJCindNZ6VS8x2+u/hCgCHI6+043s+JeEPEKcj+UKdtgmM0hCBCcOKkgzKhHhDWDL6Z0LgYABuZYBWVGhOoTgcr2KwYgyoNtO+QHpRTTL4MQZ4CTj+Ilimps65D3frx5wjmI9/e3LcoYpyWUv2igP+7ZvVfzk79APleG0S1j4LlOO/ArElhymDkF7bTwgvBjUFUh6Hkc24+weNAOo8vHIXUaxZM9pbyjM9lSbggTDcjk+Tg/Mh5oOURaPnHFjjWC+o7FdB0rtGm2hEbEPR7LmB6Q5MmylqX7Pu/jvR8tzLz9aQLpMqPOyGISiVC7pf6xbjCWYFHgmSgm9C0dm13+ixRxYxGXG5MyUu7CwXPoq7q2n7ksZwjjHQpTZvMYDcddkPN4tOARI0ZL/36D1ayrneD4ZssIAx2UC8GQ8nPKfQKohAKyZESiBbkXOrrm43dM2+Q3Jc88I5TnrII2HCqTUH6AdXRvnhJNqO9435V7sb67tw/GW26xPD8o/5khs+kEfS+W/EOsn08WiSpLL+HSTNY7k66OK+6xKEcohTwnUcp4MsrIS7LKxctxE+Shx2Ji7vVDX43Ks3HjZh2IjZObZApywzCMU43jMoIixDFlsG/5/Xc/0xjT7As0IW4YhmEYsZHlghwTCfGlB/QfIm+9+Z5MmjBFIh3cYRiGYRhGeLJUkOMAgwdl2zadNMj92jXr0znFGIZhGIYRPVkiyJlt44E4Y9ps+ej91np85vbtO20WbhiGYRhxknRBTsASQn4OGjRcPv3kS5k4cYqa1g3DMAzDiJ+kCnL2zbKdrGuXHtLpqy4aR5x9nYZhGIZhJIakCHJM5myy55SnDu06S9/eAzS6l1nSDcMwDCOxJFyQE2ub8IbsDf/yi45OmE/VAC+GYRiGYSSehApywiJy9nK7tp2l63c9Nda27Q03gjDjjGEYRmJImCDHnD52zARp92Un+Wn4aI19bV7pRhC0itBlGIZhxEfiZuRuVB45YozMnjUvptO8jFMTDj7gZDLDMAwjPhIWa51khg7+SaZMni4HD6Y9gtAw/NSuXVNuuPmamI87NAzDMNKS0ENTSCqByRknMXp6UZJPBDIMwzgVOCHOIzcMwzAMI3MkZR+5YRiGYRhZgwlywzAMw8jGmCA3DMMwjGyMCXLDMAzDyLaI/D/0Iy9VrkKgrAAAAABJRU5ErkJggg==;" parent="Oy8PkqGYpKi4nK7S3hei-3" vertex="1">
          <mxGeometry x="6.149999999999977" y="30" width="127.69" height="30" as="geometry" />
        </mxCell>
        <mxCell id="Oy8PkqGYpKi4nK7S3hei-7" style="edgeStyle=orthogonalEdgeStyle;rounded=0;orthogonalLoop=1;jettySize=auto;html=1;exitX=0.75;exitY=1;exitDx=0;exitDy=0;entryX=0.25;entryY=1;entryDx=0;entryDy=0;" parent="1" source="Oy8PkqGYpKi4nK7S3hei-3" target="Oy8PkqGYpKi4nK7S3hei-3" edge="1">
          <mxGeometry relative="1" as="geometry" />
        </mxCell>
        <mxCell id="Oy8PkqGYpKi4nK7S3hei-8" value="Configure Affirm &amp;amp; required Details" style="text;html=1;align=center;verticalAlign=middle;whiteSpace=wrap;rounded=0;" parent="1" vertex="1">
          <mxGeometry x="70" y="340" width="125" height="30" as="geometry" />
        </mxCell>
        <mxCell id="Oy8PkqGYpKi4nK7S3hei-9" value="Theme" style="swimlane;fillColor=#fad7ac;strokeColor=#b46504;" parent="1" vertex="1">
          <mxGeometry x="530" y="310" width="140" height="70" as="geometry" />
        </mxCell>
        <mxCell id="Oy8PkqGYpKi4nK7S3hei-10" value="" style="shape=image;verticalLabelPosition=bottom;labelBackgroundColor=default;verticalAlign=top;aspect=fixed;imageAspect=0;image=data:image/png,iVBORw0KGgoAAAANSUhEUgAAAV8AAABHCAYAAACgR0TDAAAAAXNSR0IArs4c6QAAAARnQU1BAACxjwv8YQUAAAAJcEhZcwAADsMAAA7DAcdvqGQAACq/SURBVHhe7d0JvHXV+AfwI/wzZyaFMsuckEgJpSIRCYVQCIk0qMxDIdJgKCIRQlIyREKmJGSKEBGZJUNkuv/zXfrd1rs78z3nnnvfzu/zWWfvs/canvWsZz1retbaV/r73/8+11pC+Pe//93673//27rqVa/a2nPPPVuHH35461//+lfrWte6Vusf//hH8fOf//ynNTc317rSla5U/jfvwf/6HgbxFz+uV77ylUtauV7vetdrvf3tb29tuummratc5SolzAwzzLA8Qc+o67vvvnvriCOOmK/3V7/61Vt//etf5/+vssoqRQfQQ894xjNar371q4ufgB8O+BkUS0r5yoAM/+Uvf2m95jWvaR100EEl457JFIVHOS8WpJsCuM51rtN63ete13rCE55QaErBcTPMMMPygjqtDh9zzDGtpz/96fN6xnP3Olup55C6fo1rXKN15JFHth7+8IfP66vgve99b+upT33qpf/6Y5VLr1OFDMZRsm9961tbb3nLW+bfReFiyGIC84HiPfDAA1vbbbfd/LMU1gzDgcByQf53c0Hz/wwzLBR/+MMfisIEeiYj6uaVi37629/+1jr00EPnR+E1rna1q1161xvRG1NXvjIEIehTn/pU6fX+85//LF19SKXLdTGBric/+cmtbbbZZjbVMAbgZ91o1fedkDJvhpthhoWA3vnpT3/a+v73v79CvY6ybYIu8pwMfuELX2j9/Oc/H1keE/+S6fnq3X7iE59oPfrRjy6tiox53okRiwUtn2mGfffdt7Rqs8q/cNTlOWjZ8hc3wwzjAGV6/vnnt37729+Wet2vbpM9o11Xfs8+++yR5TJpTVX5hmiMOP3008vcS1qhLLwtNjA4NKDHdMM1r3nNqdCysgIvf/zjH7fOOOOM1le/+tVy7ef0UoYV8hlm6IVh6jTZy0gc/vznP5crRTqqXE5F+SI2q4Luv/e977X23nvv1kUXXVR6m/Vcy6gZGwVpkaT/4Ac/uKyCXvva1y4KuWb8DKMDjzWsFi833njjgd3BBx/ccZ5thhlGhdGsek0e++mZvM+aj3WgYNiO2Xxc5XeREWJl2pzLjjvu2PrWt75Vnk1zXjWMXW+99cqi35prrln+zzA+EDwKOK4f4uf//u//5stnhhnGgTXWWKN1k5vcpMhVP1n0vlay6667brnqqI2qs6Yizal4lO+uu+7aOuecc4ZuPSYBjFx//fVbH/zgB0vB9CuQGUYDBZzWP7LQzcXfDDOMG7e5zW1at7rVrYruIWu9QA4paTri8Y9/fOtmN7vZ/PNhkbQWRfk2CZT4BRdc0Hr2s59d5vwoYcCExVbCdau3zjrrtF74whe2bnCDGxQmL4UGYWUH2ahd/ayJfhVkhhkGBfmylqPzZwMX0AW1I2+5mp6gE65//esXo4D0dkeZjoxsL4rypcQk6CoDJqtf8pKXzNvYpbJx3i8mwjzXt73tba2NNtqoMBxynWF86KdAI5hQ30Pz/wwzjIp0rDbbbLPS4TKtFaj3tV7wP/6f85zntDbccMNyT5YX0iFYFO0S4qNcX/ziF5ehvS3ECyF+oUAXmm54wxu2PvrRj7bucY97lBbNs5ninWGGlReUanSP3q81HlMJ6dFGB8Qw4Ja3vGXZ2ebIAwt1C+kIJN1F0TDJiB7vAQccUHqYCKCQ06JMA9I29MDQ+973vuUZWtHmuhAGzzDDDEsXqds6gO5tojrllFNa+++/f+tpT3tamVp41KMe1XrWs57VetWrXtU64YQTWo95zGPmR+YL6TQm7Ymc7YBALYsrpeuK2MMOO6z10pe+tJgMaWGSkcVScmhATxS+dJ0fYT+252j2zHv/F8LgpQx5rPOWcoI8b/qpkfKKHy73vcIFdi8avr373e+ej6sfrA+8/OUvX+FAkyBx9Eu3pq1Tup3ob/6HOmwdX9PfMEidGQbS5KyZUCLQKQ+9kLy4RgYmhaSFttSxJvjxrhsvOuUt8jsM/5OOMM1w+MnxYzoCLaHJFTrR/uEPf7hsyhoUE+E2wnTXXaN4P/KRj7Re+9rXzivcZI5bLCQ99FD+u+22W+spT3lKYapneZf/KzMuueSSUga14iVY/l988cXlcKM//elPrQsvvLD1xz/+sdVupMu7lFeuKUdh3Y8boa0uo9qlMoD/veA9GhMm/pOvxOdEK3n+3e9+1/r9739f+GDUptGo0wNy7tlC5UX+pI+Wmp5eDqSb3hs6MkxOPP6zn09Zule+zXzgc8pyUgiP0FWXJVpCr44Z/qNXGaCX7PETvwnHCeM6LP/5l+fwwTXOc1MLGnrlAp4p/1HSaiLhJ9LzDWNAZsynPve5zy3MlIkIyDSAmQrM0XAvetGLWte97nXnGYq2KwLkN0JGoBww8u1vf7v19a9/vewkI/yec8Cf6RnCeOMb37h173vfu9hCmyv3TFzh6yB8FO+gPV9xid9uw/3222+FhRFI2bmuuuqqPQ83EU/8oxXNZNE2U/bmn/vc54qC0vBQUMl/KqJVcXahG2ywQbHzxItxrBEIjx58HyQefuQ1o8cobvlCs/x86Utfan3jG9+Yz08Uq7DyY5PA6quvXhaP7n73u5eyFB5ynQSUgfg5NGncfvCDH7ROPfXU1i9/+ctycA0FzB+gF+/JH37f5z73KfQqBzxImUZJDkM73oGGVTrNsOKtkfdONsvccI1Be77iKeU1SeWLMSo1uzimZcE0la+MP/KRj2y9853vLAxEo4KbZ0ijAFZGRKjOOuusMv+ucVQJgBCGDxHo9GgTDlQIuwAJ25ZbbjkvjIPwcBjlq1cnfXbXbDLR1wnKceeddy5zd91Q0+b+85//fLG4+djHPlY6BiD+KDOVM8o1CC802o4VND+oMarjHgYJd+aZZ5bOgPz2qx83velNyxSMTUCRX7AN28KR+UmNRw1+UrZROsmXxaRddtml8K9X4zUuSNfZCEcddVTrxBNPLIfUBHgRWeokd2DX6SabbNJ67GMf29piiy2K/07Ksx/wQWfjmc985nya/SBtc8C3ve1tL31yGYaddpjYnC9mfOc732nttNNORQEHGNRk5qQgLUJHQN2jS4WxVVUrWhcYP/6vDMBfTt5qfrvqXX384x8vjY/TmbyX9xp4lgraBP/4VL9nH20koSLoTXnfpKHGMMoXetFT4w1veEOpSEGdb0CH3pUKr+KTzybQHnmpaav/1/Twf6c73amkqxG60Y1uVJ7XaQvbTbbyXkNggaepNDvhbne7W7EWooTR+rWvfa3k3YIRukI/574b/5rlRLE873nPaz3xiU8sK/91PIMiYSDp578GzuFZxx57bOszn/nMPI8g6dT+6/fyAM18aDicOqhDpXGmRMUhbD+Fys+PfvSjws9BgefycIc73OHSJ5dh2J7vRLSNQiXYtg1TvBiHEVx9P2knLRlNwd3znvcs1hYUL9SF261yLFfoNRBCVzwgtOeee27rSU96Upnr/vKXv1zy3CnfnSpqgGfN94bsbCW33377MnzUc5M25LoQ9KJH3pR1NyR9c9zvec97WltvvXU5pQ7NnRD/tWxA/b+mh2yR9T322KOskJ988sklDv5dU9E6wXPvazT/94L4X//615cypRCUdWQ96UM3/oXOpEnxO84Vjzo1TIMgcYk3PVfy8MUvfrE0Ts9//vNLIwGhFWp63XM15KGZD+WuMWWhYMSjU2V+GJrhm/B+GF4D/3HjwEQ0jslyn9owl2huxnySXWPTcD79Y1fKXe961zLE1DoC5q9sCreG4av8ERRzaF/5yldaD33oQ8t5ySpZLcwLESZhpaM3a+hMEUgjyn8xeJxK20RoI48ve9nLSm/b/CJl0E0hDQPxp3Gj3OVfL+zNb35zmWf1XDrj5gGlRX7JM4VjYTB5rRXwoKgVlXJ00JVPZVkDGJVP6BGvkZZPgW211ValI5bDkbzrVm6DImlwP/nJT8q0DbPRhZy12ws1nxaCxDORaQcMP++880rLFCZMghn9IE0VjSIypNLjVeApNNdhBXU5IIUb4TbEs+BJKKMI+IlyxIf0UoZFeJi4VFblnh5Zc4EMhp126AXpJ93mtAOkV65B4C90Jv+jQrogr+Gd+8RpFGBeVsMP3jURGYRMO+i59eOJjoQFSDaoUcTikXZoGEZpCssl3ZTnXe5ylzJacAbCoBAHJ32NglGWaa7wHlylIc1+89u9ECuP0B0eoNuXcGya6gZh+P/hD3841LSDaTWjjNvf/vaXPrkMizbnW2c49014B93eLwZq+nrRulggHAQRwp9JQD45vZeHPexhZUW3U/678cTzvOv0vhcoAAtSxx13XFmMCuRdnCrcOJWvikwBUr7mnlV8z5wZbOoLD6JQ+qUnPuBfPPGf8DW8C49qhCYLkuaWWRYk78C/9wkPwyhfDRqnk9NMvxs9NfrFnzhcbT46/vjjS+cFPI/8dkIaol//+tdlFMDqAjrRCf1o6YVucQL5++QnP9m6853vPF/narqTv2GUL/+Z812I8g3dI42HQngiqYUU8i7I/2m4Ov36fhoOj2o3SVBweh6G24bA0CnNTs8ohrqnMiyEY+L0ile8olhR1PnFh3EjdEZBSkPeX/CCFxRzqzzvx/PQxh+Z9l9DwtV5gNx3ijPhzf86p9q0h2fi4/C2U7hBYeRA8UIznm70BMOky6+1AY1k6nh41A3yRt6c3RLFC810/R+Glk7oFidH/oyCTDOF7wvFQukNEs9IyjcZmY+kzXDCIMNWNF1n7vJOJWTH6DqqYhsUhmQ2tqgAowieygbDho1/VwsrPrWvIZh0fgHNFC1ZtGpvqgEGTbvOq3vh9OSiiIcB/2h5//vfX3gA6su4+BB6hqVrWIj/6KOPnjcV7ZceXpniyqFZ04Qzwk1/aazwfVzKc2ww7bAQ127l5g466KC5dqHI2cz1cfi0ww47zLV7Zh35OQ538cUXz7UV/Fx7yD/X7rV1pKOXayuNubbynmsPbcuVazewHf12cvEvr2uttdbcmWeeWeQEXei76KKL5p74xCeOTWak53rIIYfMtRu3uT322KOkPyzd6OHwLPmOw5P4qa/dnHS51VZbrfw/7bTT5v785z/PtRuGwoe4lFl7iDx3jWtcYyw8adLo2nzWy8V/He7ggw++HM1Nh/dvectbCv9WXXXVuatd7WqXi3sxXcr/8MMPvxzd+d9W0B3DdnJ4sfrqq8+dddZZK8QVd8wxx3QM13Th6chzvukN6F0wH2Gs3M5oaV2WXAszJWS4CvjFgN3hHExjLMTg36Sgx2vOcZAhd8qNzaQ5PlYR5rRYinjOaoWpkB1gzl/Wc0c75728NZF38uyTQc7PQAd6hllwSzzm8Fiv1DxL2PixsGaRhfE9eRwk3yC8uM39cRtssEHr1re+ddlBBfJr4c68rGGsOeTMbQobmpp8EH96uve73/1Kfs0Z1kjYYeZ8xZtwtV9psc9VjuyNc06t0ZZpGDatrgkvrGun8gsiP9YNPvCBD1z69DKEx5wFXeZ23cz4mhB36AgN7caqLIzbxOO5tYpf/epXRWb4reuUtMPfTqj5/81vfrNsjBBH0vR+mgtuI/d8tRynnnrqXJtRODFzHZweQLuA53ufm2+++dwvfvGL+d5PJ76Oy+ldt4VsvpXt5dDXVlpzbYU9d+GFFxb6OPGgM//blWDusMMOK72a5K1f/N63K+QKtA3T89Xj5G/77bef+/KXvzx3xhlndHTtRqHwdtttt50P2y9+cctDWyHOHXvssSV/eujJb8pIj869nuu555471x7KlrBcesbi6ZRG7dqN7jw/w9vwZJier7SkrQz459DwzGc+c+4zn/nM3HnnnVdGVsoSr3/zm9+UZ5/+9KfnNt5443meRi57uaSzxhprzJ1//vnz9MaFV3i09957lzCD5IHjL3xz3XPPPeeOP/74uXbjNtdWinNnn3323Omnnz7XbrTmHvGIR6yQ10F47n38tDuIc7///e/nyxW96B+m58uNo+c77zpF0s8h/rOf/WwR2jqDM7eiwxdCQmDuda97lQqgAqvgKfxJOJWt3XMrNKSiNWmrXbuHO3fCCSeUihrhjJKIoHKh3TBOOJVykAp8xzvesQi+uNA3jPKNbO22225lKqWZVw6drqecckqJUxjXfvGjfZNNNplr9whXyGvyL87cc3W5UfbyJY2Ucac04qS17rrrlrTElXSSh2GULz/yKE7lqx6edNJJhb7QnHhDe54phyc/+cklnkEUmLRCU7vnOx9v7aSr4b72ta89H6aOo5tD/3Wuc525vfbaq5RtTStXy6N0NLIbbrjhvPLtFGftIgfSWXvttYvSrOVbnNOcdhhpwY0Jjy/7MidpZ7DVq+t/RUa7YpTh1AMe8IAy5DQU9KzN/OImBYuehpfSUDb90rr5zW9ebCPbAl38Z1iH1sAz/7ntttuu1W5MynP5S346OWj3SMvwbhTUQ8zcB/7nWVuZtd7xjneU//ySy6Rfo35mx6NjTp0bAd4lvsQd/+7DD/dtxVuOI2WChQcJ1w3eG/azHgD0LQTCm/q43e1uV6YDHvjABxb6UhelF1f/N5xnAWNKit+6jDtBGDzgbJJI/EH+OyOkrYRX4G8n1Pm2AYsttN2B6GjykTld/HtuG3dbwZXzNORDGO978dI78f7sZz8rU2Z1GU4bA0kA4jEZweZfGM8z4YHMfc1wmbIigO7xxo46R2mah4ugeNdPSEeFMmq36mXuMJWmk6DV6TulKXacdeVKuOQH7e5VCnvp5Y+fXg5Uyt/+9rcrpDkoEkez0gdJx3xje4h66dPLZLaG9FNRNTR2Q2l4hA9tKZvkFer/ubZ7U6VRtatKOv73gnD4YI2kW14GRXiiHByJqhFp0hfXfO5qTpUZIB4NUn/DYzvfWK4kfRCnU9ScE5I06vdN1LyyFuDsFyeWecbV9EPu41ZbbbXWPvvs07r//e8/r6wTpgnvpJdre7Re7vkVZlj0ytcwSDwDUZCKpwKxnTN53SmzV3RgKl4BwbC4okegVzkNELhe5ZR3esk5WaoW5AhJMw7PLcrZRWQrbT936KGHFl6ksowL6OJUWtunbTHtBXmTvquFISdjjVIJA3HZSPCgBz2orxJLWei5WcBbCMSDl3q9Fuma5dMP6LbIlG+R9UJ4jE86XPLZTI8+YM/tuXz2grLiRwfO99OG5b/6ZbHayWKuwuNFGs1OSB4sGhuFyb8ww6Jb/MMi8Qycc3uyGYxb8ZbRcVailQUEIcJntdzJYXZ4ebaY/NKrSyPQL22CQPH6rp5j/hJOmAhtJ6j4ttCqRDvuuGNRQr2cBqhXfAtFfXJeN+CF9OWNLaqeY+gZRQmLT68tn6AaFI58XAjQz2lAcoraMEie119//Z6yAUmLM51VK62E1fDp1Q8KIy09dvwfBtJLOZE/VlbKwDPvmrIVuuMoXodLLRUMJHEU7ytf+cpyFFwyO8PlgTegQhoaGZYSCPwapaUdFbazplJGmXZCLZjOtKVEDAXNj5m20MuRJ++bkCdxJ8/y2c3x5wqd4looDIXPOeecS//1Bjrk05wtWpI/5TOME05crg74NhzuBfwKP5yjPMhwvx+kqycZ3g4K+WW6xSxNQz0Ikkan8tPwDSrj8o33DqMflu7onfCS+ZvpMvXN/DHTOrLfySkfjgKGXvWiG8Ylu4mno52vl/GAWY6Zs28+lTEV7ooOgk/golzwhSBoqPQGvZ8G0LH55pu3TjvttCKo/coL7bVgCWOO2qLaLW5xi9Zaa63VWnvttYtCN33glDr+hSMTUcJ15eiFYex8A99wM0/Z6bBvNr0bb7xxmRbrhZSXXnimHNCN/kEURzeYRvjQhz40v+W3E6Qhr9Iz5HeAfb4e4bmyGtTON7DrjELpx+9ucPaGw3kuuuiiS5/0BuX23e9+tyi6gB1u/jflqBvYw5q24n9aQKf0p3m2Q1flq1IpVCu6Bx54YGFyhNf7QZi8MgNv6grlnlG+ozQNs/0ftVKMAxSbk6/QoSx7oVslSBkbJlpdpvhyb57zEY94RFHMNiiAeLh++R638nWYOGUa2ewGdKGPP7Ks3LhRIJ5BeBtILw0VpWvrtakp8aB5WOVr04le3CD8biLxO23Mgpet770QGjspX714Iwl+oB/tGnGn7Fn0w4tpAZ1oXnIH6+SluSmruVp0zxbSO1jZoNKqTK54497nkrbddttS0foJ4SQhbUMyCxLKDH29EFrrqzCcvFAI5vv0tMyZGWZqlPU2fRmEjNhRpwc4jXzbdYb//dKOklLp+ynqQaDsDduj1HtBetLlzzSJzgyMSoNyGVbpBinbfjQHvWikvGo6+sWpsdb4CDMNWVkIxkVv4rlc6eUF7b7rrrsWgUnvIExebkybFPAm/NHi+Sy++SX8GbVijAMqgJ4Ry5Q0BP3oSZk2y5bSSEXh0tiAqy8evPGNbyzDSFMtDlSJvEB9nzjGjWxn7Vfx0cKNqxOBL8PEFV4Io6HqR28vhJejytm4ymFY++3MM9dycUXFfMkpDEJBIKxeWsXW20nFw6z09Gb4X8XDK70YZwkccsgh5SwEz/JuWkgZWVH2rakoYFeCPwht4hAmclHDs/qa+AylzSFaCFIp2Rt7xx/ZgUnwhakchJ5uSJ7AtZ//XkiexFnH2w1JDy85o0nh8WNYniTMJHjZCc106rymBw/JYzeIRx2BadeRUTAuehPPCsoX2ML5gF4OsphhRYQnqXR2CjHTGtZsZpIIjebm2Ng6UET5et5UpOMGnjBZ03ibH0y6aQAmgX5zlksReIEno2BSfOyGZnq1XqAnhoE5+8jEcsO4+J545pWvSsPEyK4fH6XL/FR6LDP8D3UBsAaw0YBFwFJDelV2P7E3Xm+99RatLMmOeWELj7bUAr6NOkTuBxYmyxGTbggnhboOpFGtn/WCkeJyVLyTwCphnKHbDjvsUCqN/ypqhGNSlWa5IULj6uhCSm3NNdcs/KJwlgrQo1JoUNHqUyo+qWJOmqLyLL0u17oy1HnMtX7fCdILyIwKBr7j52sSjqT0vPY3Tlg5h3501hgkX5MAHqhPLEZc/R+WL4tNd6/0yBP6B+VndvfRL5OSh0lhXHxPPKu4scPJjh8nvxOIWpFgkEo8w/+YhjfMTGxvTI931OHjpKAMQ2scEzE7gj796U+Xg0w22GCDYiKWHrIwCecK7jlIPHnXCXVlIjP+n3HGGWVPfa9wCwWb5EGQPLKNtfDDOVRnsZ3poMx9joLFVlrN9CITwPa7/t8L4rGORDaUw2LnY6EYF72Jp9j5WhV/3/veNz8kwJj0Xma4DHhjRw0F5oQlymg5QGFzep9RguZJ7QqzX98XalktAH/yGQGxQJf7UXqv4rIgaZSQ9MnWOO18HerC2kJcveKLkmCZIr5h5yvHCdtjWcYEw9r5MtfSaUqehoU0WDQ5IWzQOfNOdr4a1i233PLSf/0VlGmwk046qcSl/oxK/0KBTmkPY+cLY/168S677DLn8JNUStdJDhGXM/RWDj/88GLbmtZ7uSBlmumImnbPHYzCZMvJVeZpKWMn2JkyMFRUUdKbHRamZljQ5EsU495koQLZyt1vp1ZGKL4mku+qTbsM5R9PhvmSBSym8pUG/52Ur2NlbZwIHf1oNwIzBZYjSReCQfgUNPkkrGfDKF/+x7rDrS2QcypmzTz3KtoMl20LJTS2DVtEspMtfFpqUG7o6kRbrXRTvvzJS567v+SSS4qZGKXr7GYbK5wY5vQqStnZuTXITy/gF8G0KUN64+z5ygezLZtK7HTrhTQ8ei8+BZSFupTxMIqYf/muRz+95KHOp/v4TbpLWfkGnZQvHlBetniLcxDa7R844IADyv0o9CcN8unUQJZGGal3i08Yfh7ykIeUxWf/8X2ayneVTHwTSi73M/wPhAs/HDiz8847z3/Xa1ShnxSUG1oJVDfaagXrnkuZB8LKo16+Hg1hfcYznlHO93AegekplU9a/Pbjg/eUuQXdpD9OiN/wPVt1eyHKUo/eFtfwoM7/oKjzLl4VWzydXHiVOibNhHXlZ7lCXpytO4jOkFfTWEcffXQZaY0KaYnLwfQWkffdd9/yqXqO2Wcn553Ok/M/8HsQepsYVzklnitdcMEFPmsxEjErM8ITVxVWz9d1EgpkHEArJee8WD3BXouAWWQTZtNNNy3z173QFDrxswU3fBRPL6EMv1g9qCj8j3PaQR6kcfDBB5cjT3sBTyhCcLiOT+uzlEBT3KAI3XqqRgTi7VeH+FFGjhnNeRjBcp3zFQ9zSwpQufrfi351CM2+pmFDTjozgyDxuppi2mKLLYp1VniA/73SNtJx4H7dUE912sG3jPJghhWRiqpyO1aTedBSBcEzHeCMVwtQvZRv8qXM2XXrGfQCQSnCcqmMSOvUU08tXyRunvHaRMLw6zwIdI1b+YqDVYXPG/U62Uw5pjEQToNAYUcB5N0gCN1OM/PVZA3aINBDNj3C0qLO+1JWvtLgv5PyhTPPPLOcafKb3/ym8LUX8Fh8Gp8TTzxxqMUuNIgfD21pp8Aj55HBXrxzGJRPLqUeo2Oq0w75s5iQcM2s2nV6tpgucE9QMqenwOr3Sw3KkCD6LA66CWg3R4CTL+f46o3V+a/vo1TEqcw8d29aAk8GkR1hVNxJILTaRp0ejbx1anzkO3ngTKFYCIzC8CyIn9xDrCP8F4YiMgKw6ETpd3OUkoVLQ23fWqsVL3oXu/4Ni9DaDc7nzWeyoFd+Ugb4stdee5UGhEySs0yBcpG7/OcSr/lxc739FG9kwVSHqy93LKQejxquicRT7HwXGxJXUArCvZ11Vtg5LVHup+Gkb8VfZQnCo2nwahgQLC1yhLEbat5bQGMGRrFEMcknl3Jy5b9+7iSxGMz3Ar/A4kFlyf9xAX0qFttdJpOhNfQ24X3y6dtjNhbJv6kUSFjgJ/RSBtIRltPzF7ZG/DcdCG/Yu80228w/WxmAV/JlES18g8hKL1CivoaSr+Nw4Y1yxTNxprw0XqyNTFeYt/eeq/lco46PiagFX/8jw8OiX36GRcfzfCcNzAQMNmdjSLqQCfhxI7a8hhjLBREqH2g09Iky6Qa9gSgU+bUYoRcXBUnoI7z5D9LQMPkSgUNVvBNPN0TQHU9qfhnGOe1AltJAiNdZG86Y9UyPqhfkVXiNlnlYR2Oa/6bIIbQlD/xa1UeHQ4Righd57pUXaflsj952TO74d4VhrB2EEcdSmHbwnGzgPUsgUwk1Tf3yopwsmBq5sIBwDomjUBMOb8kbfptqYHljpIbvUbzdgI7Q7oOv5qbJD9nP+6nO+U5D+aYiG3pQvHoRmAkIizBPAwr/rW99azmZCwjHckB46oBth5zbQNFNMPGaf3nDb1CxlMXWW29dzlwlpMl7Kpe4rTD7qomhduJvKt8IVyA+ysU8pXeU4jjnfMXpKl8M+OXDN8XQT5aa9ATeex5+cOyFbQQgB3Zv6dWZ19ZLZp5mbpbcqsDiFodw4umVF+ZQlIcGjn/huPB/uZqagfJHh7ls8mMxrBvPa+B76BcHXlNqpjFSznivg8bUMXEK5xq+dwN/oJxY6uj51lMV3g+jfGGsmywWQ/mGQa4ReKZHholO0w8GKbBxohZ+BWnl29GQbEbB++UEAqVXsMsuu7Q++MEPzufN8yZSDnWZcHp9d73rXcucbnogKqfFPNMxlG4zfBNRTN7xt9VWW5VzfoNx9nyjyBKP3rghsIUw7wA97jvxAcInSDz9ZLF+381vKr93Nna86U1vKlYzoRmS9nJWvqGX7FkEU4dSJt143gm9eC6+lGcvf3nnKoz0bYpiBZQeL8TPNJXvomqXMMaQWO+E4o2AQjeGTgrSqyuuoTFFgU5uOSEV2hDa8C/5ck1rX4P/5DtXeaa8WEsYPh511FGtd73rXeWeXSzFm/KqwzeR4SCnN/O4xz2uPB+mIg4K+YOUGQXBesNUincqXOiJ3yZCK9Rln/v6WRD/UN8H4b9wKrfRlIajTmdULCTsKOiXnvec/LGeca0bmEERftUuiOKFTvyG+Hflh7xtsMEGxa54WFo6oaZnIUg8i6J8a6K17Az2rTKryN0YuRhIAfnqg/kglSSFPE26RkEEDmzdNMSSF66f0ku4XJWL+OaFpC24+d+PLwmTKwP8fKI8CmlSSBo2hzApYvlRK95R0k6YUcLiAdnab7/9ijmb/+PgwULDD4th0jNiOvnkk8vZFaM2tqPyvPYf3hsx1T3ehWBcfE88i6J8KQDMMCyh5A477LCihAkipKIuNlIRnPbFTpGwoMWzadE0KkIzXhvaWhVeZ511yrvweVCED+FBLXT1SKUbaj92Fpm+CCbJ15pOc7cWcDJE9q5+3wuD+hsEaLBLMHVA3J1GIisL5NNxq9YFprFgnXLmbOqxESO8X2qYiPLV21CBI8Qybp6PSY95O0oYQ2JzGn+TBjq0gpwKQEnsv//+5TjN9Ew4ymopFlYvhOb0WtmSsmDIyro898pbyiBX5cKBZ3FNC4LEXfMVpKsHZP642ZOeFJK3NDYWf+x80xurGxQOrU0kj53uOyGNjPjkW7qhgdI/9thjy5SLZ+PkwTjiGAbDpMev/Gr8zLOSg/AEz3OPH93KoL72gng4vK+dqSeLm77erV4n3YVCWuNA4pmI8o1QEvhUYls5VYRU6GlAgUrfVYEoHAsOCsazQQp8uUADaOpB6+8M2UnmLXG7SpfBvamlTDdMC8paz+f9739/UQapgLXSXAii0MUnn4lfvo3wmNahYVyVNlhsng6bXvjCYui4444r5n+UYnjhHsahC+q6Kz6jPQt+TRvspYTwcyLKFyQQofRdOCvwTJUUzDQhfQrCvKi5OEN0AqEQU3mWOwgh3jNvYtrk+MR8xw3GqQzEyeEpJx3Kzuo+jKOCjQr55OxswgOf9kdrZDD8WAiS98iVj5bq8camOXXgigJ5TeNmlMRszxTY7rvvXnhU1/+Fyoa0xJF4N9tss6LsnR8dBT9OjLscJ6JtMITQu1pY22mnncoRhYifhiCmEgbsYJkiWRFH47TomhTk1VkUaUzud7/7FfvX3XbbrUxH1LyA+n/zHXR6VgPvKF1TSuxgbVQQRiVMRZwW8EAZW3w74ogjirH+5ptvXhrdGujtx4dO4I95nnld0yyZ5oC6tzduiBdGldthwg1Lf/Ks8Xc1BWPunzkdsy/1Tvp1Z2eQNOInV7LFusfUljPJmS4yBYNOUxpNDMu7XjSOws+J2PlGMBj66/6zD50GZFIBuWKOnomhOHtLnwDKuysC5N+8OztNm1ooSZsG2HiGP01F6RmXSqJc/Q9MZ9jphqeGlqYb+s2vhQ6fMtIgDMJ/PSjmcw6wUdlGRWiXZ3nHB6MyB8OgI3xAv3vyEp40lZ25RI3MJpts0tpoo40KH7KwyM8g+YL4ddoW2+fmnHo3MOGjzEaVYenaDYmn/Q6hhzRiNtk07XwHhTSZMjoFzg5SJo02ZqA/ThqRn/xP/iJ/3rNoMa2hIWVOhqam/PaCeMB51eS3aT/eCdLV0LJZZ81RQ3zOSWFdEfnph4ltsrBdmFD6iCLCktnFRArRVUWiGFQ0vTTDFAwapsCWK/BeXvEgQuEZA3P76n1GyOfeU06dykq4OCZ5ppFsydWI1e/6IfGzGa7p6QT+KCM9KMouH8ocFcqcLLgqd/HbCadzYAcUW9xUcMg1NLra3OA8Ap/OYWhPCY6qAAPpGKnYRut+UJk0iqmV1aBIvmycGWSDBX4Jo/6wYFjokF65i0Pa4b2pCWnE1cDbOHb4Tq8znUHhyn/KbJDebg35EtaWZeU4KMgheawhLvsXNC6DYiLK16EXDr9w3mvQZOhiIYKipWJt4Uu+GAXeLaTSLCdEqOU3ZZG8+69C5OQtQsQiJf4oP/vv9ewoH4KXuCL8UWae9eIpv0BhxH8/hI6ksxCIq1u6nukF2tKqEjGHJCsqJptR0wn4kPDoqZX5IHnphcSb/PZDlNiw6Tbj7xWe3/gPbcMq+xpoxiu8E1/SFq+zMvCeUvYeX6VlmsIoixWD/Iam8H9UeqIHhO+Xr6TJT8o78Dy0Jq5+ZVL8jEP5hgki1JrqFdkt5rlnuS4GQgeUDLaZoKU68sgjyxAxyLt+TFpZUPMkV7xK2eFDeJJr/DXfNZE4IOF6QRxcXVb90KRrVNTpNekQdzP+VKo8T/g6zzAsXUkvqP8333VC6AiGST9hhWnG00QnP8OkVUM8XOLsFU/9Lul7lvKAWgkOS5M4laFwXD96oPbT9Ju4Boln3t+4lK8I9Zhs7TR8mxYy9NDCKiStpTlepxrJ8EJ7TjPMMMMM48Bo/fUOoHwPPfTQso96mtAQULKGJ4bIvp7A2L7ZU5lhhhlmmCbGpo2YejCst5Ldr9s9SVCyuTJvib3pTPHOMMMMSwkjayS9S7AazWbW97AoXvMwiwmKvnZ6vBZI2LRaFaV0o3ijmGeYYYYZpo0FK98vfelLrX322ed/E8ht5eead4sBc7gUrmuUr11GvkrAdo/i9dx1Nt87wwwzLBWMvOBGwTph3j52iOJdbEThgkU2NpjmeZlDeTdTuDPMMMNSxEg9X0rWZgUH06RnGWSIv1iQdhbZ7O12kr5dUE26ZphhhhmWDlqt/wciLp+AXIqiBAAAAABJRU5ErkJggg==;" parent="Oy8PkqGYpKi4nK7S3hei-9" vertex="1">
          <mxGeometry x="30" y="40" width="74.16" height="15" as="geometry" />
        </mxCell>
        <mxCell id="Oy8PkqGYpKi4nK7S3hei-11" value="" style="endArrow=classic;html=1;rounded=0;" parent="1" edge="1">
          <mxGeometry width="50" height="50" relative="1" as="geometry">
            <mxPoint x="200" y="310" as="sourcePoint" />
            <mxPoint x="530" y="350" as="targetPoint" />
            <Array as="points">
              <mxPoint x="200" y="350" />
            </Array>
          </mxGeometry>
        </mxCell>
        <mxCell id="Oy8PkqGYpKi4nK7S3hei-13" value="Add Script to load&amp;nbsp;&lt;span style=&quot;font-size:11.0pt;mso-bidi-font-size:12.0pt;&lt;br/&gt;font-family:&amp;quot;Frutiger LT Pro 55 Roman&amp;quot;,sans-serif;mso-fareast-font-family:Calibri;&lt;br/&gt;mso-fareast-theme-font:minor-latin;mso-bidi-font-family:&amp;quot;Mangal \(Body CS\)&amp;quot;;&lt;br/&gt;color:#595959;mso-themecolor:text1;mso-themetint:166;mso-ansi-language:EN-IN;&lt;br/&gt;mso-fareast-language:EN-US;mso-bidi-language:AR-SA&quot;&gt;widget&amp;nbsp;&lt;/span&gt;" style="text;html=1;align=center;verticalAlign=middle;whiteSpace=wrap;rounded=0;" parent="1" vertex="1">
          <mxGeometry x="290" y="320" width="160" height="30" as="geometry" />
        </mxCell>
        <mxCell id="cw5P8ooFDJOW6OJ8KjBc-3" value="Get Access Key &amp;amp; Token" style="text;html=1;align=center;verticalAlign=middle;resizable=0;points=[];autosize=1;strokeColor=none;fillColor=none;" parent="1" vertex="1">
          <mxGeometry x="150" y="200" width="150" height="30" as="geometry" />
        </mxCell>
        <mxCell id="I_42Z9jxvuomtFUWuS1F-1" value="" style="endArrow=classic;startArrow=classic;html=1;rounded=0;" edge="1" parent="1">
          <mxGeometry width="50" height="50" relative="1" as="geometry">
            <mxPoint x="150" y="240" as="sourcePoint" />
            <mxPoint x="530" y="200" as="targetPoint" />
            <Array as="points">
              <mxPoint x="150" y="200" />
            </Array>
          </mxGeometry>
        </mxCell>
        <mxCell id="I_42Z9jxvuomtFUWuS1F-3" value="Request AccessKey &amp;amp; Token" style="text;html=1;align=center;verticalAlign=middle;whiteSpace=wrap;rounded=0;" vertex="1" parent="1">
          <mxGeometry x="390" y="170" width="130" height="30" as="geometry" />
        </mxCell>
      </root>
    </mxGraphModel>
  </diagram>
</mxfile>
